<svg width="272" height="170" viewBox="0 0 272 170" fill="none" xmlns="http://www.w3.org/2000/svg">
<g clip-path="url(#clip0_81_51)">
<path d="M2.59653 59.253C6.37679 16.4973 44.0561 2.36651 69.1155 13.7003C45.6328 30.7108 36.2514 51.1967 40.4712 74.4671C64.215 52.002 94.5606 53.188 111.332 70.5255C75.7003 79.4872 51.8368 98.8797 41.7184 127.798C66.2018 112.168 93.5943 116.547 109.08 134.289C75.0195 141.059 52.6326 158.856 38.9413 187.203L-2.74302 180.54C15.185 133.328 14.2258 93.4789 2.59653 59.253Z" fill="#73AD4B"/>
<path d="M23.395 85.7841C26.4507 127.8 22.6679 155.288 9.38176 184.921" stroke="#8B5E34" stroke-width="11.3218" stroke-linecap="round"/>
<path d="M148.304 59.5047L79.6671 70.1878C74.3281 71.0188 70.6737 76.0206 71.5047 81.3595L85.799 173.197C86.63 178.536 91.6317 182.19 96.9707 181.359L165.607 170.676C170.946 169.845 174.601 164.844 173.77 159.505L159.475 67.6671C158.644 62.3281 153.643 58.6737 148.304 59.5047Z" fill="url(#paint0_linear_81_51)"/>
<path d="M92.0291 94.2263L90.9085 87.0266L93.749 86.5845C94.2951 86.4995 94.7765 86.5313 95.1933 86.6801C95.6098 86.8265 95.9475 87.068 96.2063 87.4046C96.4671 87.7385 96.6347 88.1445 96.7091 88.6226C96.7835 89.1007 96.7461 89.5386 96.5967 89.9363C96.4474 90.334 96.1929 90.6653 95.8332 90.9301C95.4759 91.1945 95.0207 91.3698 94.4676 91.4559L92.6572 91.7377L92.4673 90.5178L94.0317 90.2743C94.3246 90.2287 94.5582 90.1408 94.7323 90.0105C94.9085 89.8774 95.0294 89.7134 95.095 89.5183C95.1627 89.3206 95.178 89.1033 95.1412 88.8666C95.104 88.6276 95.0235 88.4265 94.8997 88.2633C94.7778 88.0974 94.6132 87.9802 94.4057 87.9117C94.1978 87.8408 93.9462 87.8284 93.6509 87.8744L92.6244 88.0341L93.5513 93.9894L92.0291 94.2263ZM98.8483 93.1649L97.2171 93.4188L98.5819 85.8322L100.544 85.5269L104.146 92.3403L102.515 92.5942L99.8469 87.3204L99.7907 87.3292L98.8483 93.1649ZM98.3058 90.3508L102.159 89.7511L102.344 90.9393L98.4908 91.539L98.3058 90.3508ZM107.956 86.494C107.883 86.2148 107.728 86.0133 107.491 85.8895C107.253 85.7656 106.951 85.7322 106.586 85.7891C106.337 85.8277 106.133 85.8955 105.973 85.9925C105.812 86.0871 105.696 86.2024 105.623 86.3385C105.553 86.4742 105.53 86.6195 105.554 86.7741C105.57 86.9038 105.614 87.0121 105.688 87.099C105.764 87.1856 105.86 87.2559 105.976 87.3098C106.092 87.3613 106.223 87.4021 106.37 87.4322C106.516 87.4599 106.67 87.4791 106.832 87.4898L107.503 87.5438C107.828 87.5652 108.131 87.6141 108.412 87.6904C108.693 87.7667 108.942 87.8755 109.161 88.0167C109.38 88.1578 109.56 88.3362 109.702 88.5518C109.846 88.7671 109.942 89.0245 109.991 89.3241C110.058 89.7651 110.004 90.1646 109.832 90.5227C109.662 90.8781 109.382 91.1773 108.993 91.4203C108.605 91.6607 108.118 91.8264 107.532 91.9176C106.951 92.0081 106.431 91.9978 105.972 91.8868C105.516 91.7755 105.139 91.564 104.844 91.2524C104.55 90.938 104.357 90.5228 104.264 90.0067L105.737 89.7774C105.791 90.0162 105.892 90.207 106.039 90.3498C106.188 90.4898 106.372 90.5848 106.591 90.6347C106.812 90.6819 107.054 90.6851 107.316 90.6443C107.574 90.6041 107.792 90.5318 107.97 90.4273C108.151 90.3223 108.283 90.1949 108.368 90.0449C108.453 89.8949 108.481 89.7332 108.454 89.5597C108.429 89.398 108.36 89.2696 108.247 89.1744C108.136 89.0788 107.983 89.0066 107.788 88.9577C107.596 88.9085 107.363 88.8726 107.091 88.8502L106.276 88.7753C105.646 88.7222 105.131 88.5659 104.731 88.3066C104.33 88.0473 104.09 87.6514 104.009 87.119C103.939 86.6835 103.996 86.2846 104.18 85.9223C104.366 85.5597 104.651 85.2549 105.035 85.0079C105.419 84.7609 105.873 84.5965 106.398 84.5148C106.933 84.4317 107.413 84.4505 107.84 84.5713C108.269 84.6917 108.621 84.8975 108.894 85.1886C109.167 85.4797 109.341 85.8391 109.415 86.2669L107.956 86.494ZM114.443 85.4843C114.37 85.2051 114.215 85.0036 113.978 84.8798C113.74 84.7559 113.438 84.7225 113.073 84.7794C112.824 84.8181 112.62 84.8859 112.46 84.9828C112.299 85.0774 112.183 85.1927 112.11 85.3288C112.04 85.4646 112.017 85.6098 112.041 85.7645C112.057 85.8941 112.101 86.0024 112.175 86.0894C112.251 86.176 112.347 86.2462 112.463 86.3001C112.579 86.3517 112.71 86.3925 112.857 86.4225C113.003 86.4502 113.157 86.4694 113.319 86.4801L113.99 86.5341C114.315 86.5555 114.618 86.6044 114.899 86.6807C115.18 86.7571 115.429 86.8658 115.648 87.007C115.867 87.1482 116.047 87.3266 116.189 87.5422C116.333 87.7574 116.429 88.0148 116.478 88.3145C116.544 88.7554 116.491 89.155 116.319 89.513C116.149 89.8684 115.869 90.1676 115.479 90.4107C115.092 90.651 114.605 90.8168 114.019 90.908C113.438 90.9984 112.918 90.9882 112.459 90.8772C112.002 90.7658 111.626 90.5543 111.331 90.2427C111.037 89.9283 110.844 89.5131 110.751 88.997L112.224 88.7677C112.278 89.0066 112.379 89.1974 112.526 89.3401C112.675 89.4801 112.859 89.5751 113.078 89.625C113.299 89.6723 113.541 89.6754 113.803 89.6346C114.061 89.5945 114.279 89.5221 114.457 89.4176C114.638 89.3127 114.77 89.1852 114.855 89.0352C114.94 88.8852 114.968 88.7235 114.941 88.5501C114.916 88.3883 114.847 88.2599 114.734 88.1647C114.623 88.0691 114.47 87.9969 114.275 87.948C114.083 87.8988 113.85 87.8629 113.578 87.8405L112.763 87.7657C112.133 87.7125 111.618 87.5562 111.218 87.2969C110.817 87.0376 110.577 86.6417 110.496 86.1094C110.426 85.6738 110.483 85.2749 110.667 84.9127C110.853 84.55 111.138 84.2452 111.522 83.9982C111.906 83.7512 112.36 83.5869 112.885 83.5051C113.419 83.422 113.9 83.4408 114.327 83.5616C114.756 83.682 115.107 83.8878 115.381 84.1789C115.654 84.47 115.828 84.8295 115.902 85.2572L114.443 85.4843ZM117.822 90.2116L116.702 83.0119L119.542 82.5698C120.088 82.4848 120.57 82.5167 120.986 82.6655C121.403 82.8119 121.741 83.0534 121.999 83.39C122.26 83.7238 122.428 84.1298 122.502 84.6079C122.577 85.086 122.539 85.524 122.39 85.9217C122.24 86.3194 121.986 86.6506 121.626 86.9155C121.269 87.1799 120.814 87.3552 120.261 87.4413L118.45 87.7231L118.26 86.5032L119.825 86.2597C120.118 86.2141 120.351 86.1261 120.525 85.9958C120.702 85.8628 120.822 85.6987 120.888 85.5037C120.956 85.3059 120.971 85.0887 120.934 84.852C120.897 84.6129 120.817 84.4118 120.693 84.2487C120.571 84.0828 120.406 83.9656 120.199 83.8971C119.991 83.8262 119.739 83.8138 119.444 83.8597L118.417 84.0195L119.344 89.9747L117.822 90.2116ZM130.288 84.5844C130.41 85.3695 130.365 86.0606 130.153 86.6577C129.943 87.2544 129.606 87.7378 129.14 88.108C128.676 88.4754 128.127 88.7085 127.492 88.8074C126.852 88.907 126.255 88.851 125.701 88.6396C125.148 88.4281 124.68 88.07 124.299 87.5652C123.918 87.0604 123.667 86.4166 123.545 85.6339C123.423 84.8487 123.466 84.1578 123.676 83.5611C123.886 82.9644 124.222 82.4823 124.686 82.1149C125.149 81.7451 125.701 81.5104 126.341 81.4108C126.976 81.312 127.57 81.3683 128.124 81.5797C128.68 81.7885 129.148 82.1452 129.529 82.65C129.913 83.1545 130.165 83.7992 130.288 84.5844ZM128.744 84.8246C128.665 84.316 128.522 83.899 128.316 83.5735C128.111 83.2476 127.858 83.0158 127.556 82.878C127.253 82.7402 126.918 82.7 126.55 82.7573C126.182 82.8145 125.875 82.9547 125.629 83.1779C125.383 83.401 125.211 83.699 125.113 84.072C125.017 84.4445 125.009 84.8851 125.088 85.3936C125.167 85.9022 125.309 86.3194 125.513 86.6453C125.72 86.9708 125.975 87.2024 126.277 87.3402C126.579 87.478 126.914 87.5182 127.282 87.461C127.65 87.4037 127.957 87.2635 128.203 87.0404C128.45 86.8172 128.62 86.5194 128.716 86.1468C128.814 85.7739 128.823 85.3332 128.744 84.8246ZM131.976 88.0087L130.855 80.809L133.695 80.3669C134.239 80.2823 134.718 80.3073 135.133 80.442C135.55 80.574 135.886 80.8012 136.143 81.1238C136.401 81.4436 136.568 81.8414 136.642 82.3171C136.716 82.7952 136.677 83.2226 136.525 83.5992C136.372 83.9735 136.114 84.2825 135.751 84.5262C135.39 84.7696 134.933 84.9343 134.38 85.0204L132.478 85.3164L132.288 84.093L133.944 83.8353C134.234 83.7901 134.469 83.7126 134.649 83.603C134.829 83.4935 134.953 83.3517 135.022 83.1777C135.094 83.0034 135.111 82.7979 135.074 82.5612C135.037 82.3221 134.957 82.128 134.836 81.9789C134.716 81.8295 134.553 81.7277 134.345 81.6736C134.14 81.6168 133.89 81.6112 133.597 81.6568L132.571 81.8166L133.498 87.7718L131.976 88.0087ZM135.354 84.1271L137.653 87.125L135.973 87.3866L133.712 84.3826L135.354 84.1271ZM137.273 81.0955L137.077 79.8405L142.99 78.9202L143.186 80.1752L140.981 80.5183L141.907 86.4629L140.402 86.6971L139.477 80.7525L137.273 81.0955Z" fill="#F3CF4E"/>
<path d="M126.549 145.567C138.562 143.697 146.785 132.443 144.915 120.43C143.045 108.417 131.791 100.195 119.778 102.065C107.766 103.934 99.5431 115.188 101.413 127.201C103.283 139.214 114.537 147.436 126.549 145.567Z" stroke="#F3CF4E" stroke-width="3.3396"/>
<path d="M104.797 126.675L141.532 120.957M119.779 102.065C134.753 115.576 136.709 128.143 126.55 145.567C111.575 132.055 109.619 119.488 119.779 102.065Z" stroke="#F3CF4E" stroke-width="2.08725"/>
<path d="M143.371 151.859L113.403 156.524C112.335 156.69 111.604 157.69 111.771 158.758C111.937 159.826 112.937 160.557 114.005 160.391L143.973 155.726C145.041 155.56 145.772 154.56 145.606 153.492C145.439 152.424 144.439 151.693 143.371 151.859Z" fill="#F3CF4E"/>
<path d="M214.279 117.85L146.435 134.735C142.329 135.756 139.828 139.914 140.85 144.02L147.789 171.901C148.811 176.007 152.968 178.508 157.074 177.486L224.919 160.602C229.025 159.58 231.525 155.422 230.503 151.316L223.565 123.435C222.543 119.329 218.386 116.828 214.279 117.85Z" fill="#989CA8"/>
<path d="M163.969 137.773L150.028 141.242C148.489 141.626 147.551 143.184 147.934 144.724L149.553 151.23C149.936 152.77 151.495 153.707 153.035 153.324L166.976 149.855C168.516 149.472 169.453 147.913 169.07 146.373L167.451 139.867C167.068 138.327 165.509 137.39 163.969 137.773Z" fill="#F2F7FB"/>
<path d="M197.391 163.011C206.886 160.648 212.669 151.035 210.305 141.539C207.942 132.043 198.329 126.261 188.833 128.624C179.337 130.988 173.555 140.601 175.919 150.097C178.282 159.592 187.895 165.374 197.391 163.011Z" fill="#31343F"/>
<path d="M195.887 156.97C202.046 155.437 205.797 149.202 204.264 143.042C202.731 136.883 196.495 133.132 190.336 134.665C184.177 136.198 180.426 142.434 181.959 148.593C183.492 154.753 189.728 158.503 195.887 156.97Z" fill="#111827"/>
<path opacity="0.8" d="M187.653 145.696C189.706 145.185 190.957 143.106 190.446 141.053C189.935 139 187.856 137.75 185.803 138.261C183.75 138.772 182.5 140.85 183.011 142.903C183.522 144.957 185.6 146.207 187.653 145.696Z" fill="#DBEAFE"/>
<path d="M216.34 145.959C218.136 145.512 219.23 143.693 218.783 141.896C218.336 140.1 216.517 139.006 214.721 139.453C212.924 139.9 211.83 141.719 212.277 143.515C212.724 145.312 214.543 146.406 216.34 145.959Z" fill="#FF9F43"/>
<path d="M176.837 159.737L162.896 163.207C161.87 163.462 161.245 164.501 161.5 165.528C161.756 166.555 162.795 167.18 163.822 166.924L177.762 163.455C178.789 163.199 179.414 162.16 179.158 161.133C178.903 160.107 177.864 159.482 176.837 159.737Z" fill="#F7D35D"/>
</g>
<defs>
<linearGradient id="paint0_linear_81_51" x1="70" y1="71.6924" x2="157.971" y2="58" gradientUnits="userSpaceOnUse">
<stop stop-color="#00866F"/>
<stop offset="1" stop-color="#00665F"/>
</linearGradient>
<clipPath id="clip0_81_51">
<rect width="271.042" height="169.434" fill="white"/>
</clipPath>
</defs>
</svg>
