<svg width="393" height="187" viewBox="0 0 393 187" fill="none" xmlns="http://www.w3.org/2000/svg">
<path d="M37.1504 195.198L93.5164 152.07L183.19 168.296L126.397 213.56L37.1504 195.198Z" fill="#FFE4D3"/>
<path d="M79.8518 147.373L156.288 160.61L221.194 132L286.954 148.227L213.508 196.479L131.521 180.253L75.1547 215.695L0 203.739L79.8518 147.373Z" fill="#FFF2E7"/>
<path d="M80.2788 153.351L155.433 165.734L216.497 139.686L272.009 152.924L209.664 191.782L130.667 175.983L80.2788 206.728V153.351Z" fill="#5FC7EF"/>
<path opacity="0.55" d="M126.823 161.037L132.802 201.176M187.033 145.664L201.551 191.782M239.555 145.664L213.08 191.782M81.9868 183.669L212.226 193.49" stroke="#2797D2" stroke-width="1.09321"/>
<path d="M297.517 4.00039L338.231 10.7305C346.57 12.109 352.303 20.1116 350.924 28.4507L349.465 37.2803L335.73 35.0099L337.108 26.6708C337.514 24.2181 335.876 21.9317 333.423 21.5262L299.086 15.8502C296.633 15.4448 294.347 17.0826 293.941 19.5352L292.563 27.8743L278.828 25.6039L280.288 16.7743C281.666 8.43526 289.178 2.62193 297.517 4.00039Z" fill="#36323A"/>
<path d="M355.517 40.2964L270.655 26.2685C263.07 25.0146 255.904 30.1474 254.65 37.733L235.27 154.97C234.017 162.556 239.149 169.722 246.735 170.976L331.597 185.003C339.183 186.257 346.348 181.124 347.602 173.539L366.982 56.3017C368.236 48.7161 363.103 41.5503 355.517 40.2964Z" fill="url(#paint0_linear_81_33)"/>
<path opacity="0.65" d="M356.677 51.5746C357.125 48.8655 355.292 46.3063 352.583 45.8585C349.873 45.4106 347.314 47.2438 346.866 49.9529L325.865 177.001C325.417 179.71 327.25 182.269 329.96 182.717C332.669 183.165 335.228 181.332 335.676 178.622L356.677 51.5746Z" fill="#252330"/>
<path d="M297.054 48.6501L272.275 50.6497C270.085 50.8264 268.453 52.7447 268.63 54.9343L270.15 73.7662C270.326 75.9558 272.245 77.5876 274.434 77.4109L299.213 75.4113C301.403 75.2346 303.035 73.3163 302.858 71.1267L301.338 52.2947C301.161 50.1051 299.243 48.4734 297.054 48.6501Z" fill="#FFF7DB"/>
<path d="M338.232 62.8196L318.923 54.8668C316.892 54.0301 314.567 54.9985 313.731 57.0297L307.293 72.6601C306.456 74.6913 307.425 77.0161 309.456 77.8527L328.764 85.8056C330.795 86.6422 333.12 85.6738 333.956 83.6426L340.395 68.0122C341.231 65.981 340.263 63.6562 338.232 62.8196Z" fill="#FFF7DB"/>
<path d="M284.077 100.55C292.724 87.8692 312.597 95.6896 306.321 109.266C301.513 120.062 284.109 124.744 284.109 124.744C284.109 124.744 275.016 109.635 284.077 100.55Z" stroke="#FFF7DB" stroke-width="2.97002"/>
<path d="M328.637 107.899L301.423 110.574C299.237 110.788 297.639 112.735 297.853 114.921L299.799 134.713C300.014 136.899 301.96 138.497 304.146 138.283L331.361 135.608C333.547 135.393 335.145 133.446 334.93 131.26L332.985 111.468C332.77 109.282 330.823 107.684 328.637 107.899Z" fill="#FFF7DB"/>
<path d="M358.876 177.073C337.43 182.425 323.132 165.355 336.101 148.088C352.078 147.033 362.547 154.728 358.876 177.073Z" fill="#72A84C"/>
<path d="M370.907 167.619C353.601 146.721 364.772 123.79 387.664 127.031C398.485 144.18 392.04 160.743 370.907 167.619Z" fill="#72A84C"/>
<path d="M365.634 174.416C341.609 164.104 342.468 140.431 362.195 132.891C380.243 143.477 382.275 159.571 365.634 174.416Z" fill="#72A84C"/>
<defs>
<linearGradient id="paint0_linear_81_33" x1="256.92" y1="23.9981" x2="369.252" y2="42.5668" gradientUnits="userSpaceOnUse">
<stop stop-color="#FF7659"/>
<stop offset="1" stop-color="#EF4F39"/>
</linearGradient>
</defs>
</svg>
