<svg width="72" height="61" viewBox="0 0 72 61" fill="none" xmlns="http://www.w3.org/2000/svg">
<path d="M15.9823 40.9868C15.2238 40.7476 15.2039 40.1703 15.8739 38.1382C16.3395 36.7412 16.8791 35.4918 17.0793 35.365C17.6987 34.9727 16.6789 33.8682 15.5591 33.7282C14.0059 32.5132 14.5888 32.0002 16.2052 31.1537C17.6302 30.6012 17.6404 30.504 16.5059 28.0135C15.0941 24.9207 15.3373 24.2027 17.6522 24.6425C18.8598 24.8695 19.9689 25.6516 21.2086 27.1548L23.0106 29.3393L28.6438 28.8572C32.8862 28.4975 34.2793 28.1727 34.2895 27.5504C34.3099 26.1306 32.0015 17.998 30.6198 14.6334C29.8907 12.865 29.4581 11.3173 29.6537 11.1935C29.8493 11.0696 30.8146 11.0481 31.8042 11.1474C33.0862 11.2755 34.0821 11.8894 35.2965 13.3114C36.2416 14.4114 37.7472 15.4999 38.6807 15.7578L40.3645 16.2214L39.7594 17.5836C38.8879 19.5553 40.1004 21.1082 42.4579 21.0283C44.939 20.9478 45.8525 22.554 44.1229 23.9542C43.103 24.7752 43.0651 25.1169 43.873 26.3815C44.719 27.7063 45.2619 27.8421 49.4802 27.7636C56.4351 27.6372 58.4875 27.8996 60.7124 29.2068C64.4721 31.4219 64.463 32.5816 60.6583 34.9914C58.3811 36.4337 56.9814 36.6655 49.9493 36.7629C45.2994 36.8296 44.1762 37.2817 43.1469 39.509C42.862 40.1303 43.0363 40.4672 43.8878 40.9457C44.7649 41.4339 44.9453 41.8318 44.7377 42.7607C44.3858 44.3061 44.0934 44.4524 41.872 44.2321C40.1606 44.0649 39.9673 44.1614 39.3748 45.4508C38.9085 46.4657 38.9888 47.1279 39.6602 47.8372C40.8602 49.1128 39.8837 50.5481 38.0342 50.235C36.8062 50.0274 36.581 50.1765 34.9179 52.2996C33.2356 54.4542 33.0336 54.5886 31.4359 54.5698C29.2904 54.5413 29.0505 54.1422 29.8558 51.9012C31.5403 47.2169 34.3609 37.1063 34.0527 36.8672C33.858 36.7247 31.271 36.36 28.2928 36.0681L22.8879 35.5304L20.9317 37.7677C19.4074 39.7471 18.3853 40.3994 15.9823 40.9868Z" fill="#EF917E"/>
</svg>
