<svg width="1024" height="728" viewBox="0 0 1024 728" preserveAspectRatio="none" fill="none" xmlns="http://www.w3.org/2000/svg">
<g clip-path="url(#clip0_66_389)">
<rect width="1024" height="728" fill="white"/>
<path d="M1024 0H2.84424V727.289H1024V0Z" fill="url(#paint0_linear_66_389)"/>
<path d="M93.8164 18.7996C99.3476 7.00431 113.013 7.00431 118.544 18.7996C125.377 14.6142 134.487 20.702 134.813 30.2144C141.32 28.3119 147.502 33.2583 148.803 41.2486H81.7778C82.1032 34.0193 87.6344 29.4534 93.8164 30.9753C92.8403 26.4094 92.8403 22.224 93.8164 18.7996Z" fill="url(#paint1_linear_66_389)"/>
<path d="M865.372 50.0808C870.903 38.2856 884.569 38.2856 890.1 50.0808C896.933 45.8954 906.043 51.9833 906.368 61.4956C912.876 59.5931 919.058 64.5395 920.359 72.5299H853.333C853.659 65.3005 859.19 60.7346 865.372 62.2566C864.396 57.6907 864.396 53.5053 865.372 50.0808Z" fill="url(#paint2_linear_66_389)"/>
<path d="M656.955 126.938C669.646 99.8748 701 99.8748 713.691 126.938C729.368 117.335 750.271 131.303 751.017 153.128C765.948 148.763 780.131 160.112 783.118 178.445H629.333C630.08 161.858 642.771 151.382 656.955 154.874C654.715 144.398 654.715 134.795 656.955 126.938Z" fill="url(#paint3_linear_66_389)"/>
<path d="M246.356 73.1285C253.189 58.6698 270.434 59.0503 276.941 74.27C284.424 68.5626 295.487 75.0309 296.788 86.0652C304.597 84.1628 312.406 90.2506 314.358 99.763H238.222C238.873 89.4897 247.332 83.0213 255.792 86.4457C254.165 81.1188 251.888 76.9334 246.356 73.1285Z" fill="url(#paint4_linear_66_389)"/>
<path d="M1054.42 153.354C1042.06 124.437 1006.92 124.057 994.231 153.354C980.24 144.223 961.369 154.876 958.44 175.042C945.426 172.76 933.387 183.033 930.133 198.253H1058.65C1057.03 176.184 1038.48 162.486 1020.91 170.096C1026.44 160.584 1037.83 160.584 1054.42 153.354Z" fill="url(#paint5_linear_66_389)"/>
<path d="M-1.37513 138.658C2.52927 129.145 13.9171 129.145 18.1469 138.658C23.0274 135.233 29.8601 139.799 30.8362 147.029C35.066 145.887 39.9465 149.692 41.2479 155.399H-8.5332C-7.88247 149.311 -2.6766 145.126 2.52927 147.029C1.22781 143.604 0.251705 141.321 -1.37513 138.658Z" fill="url(#paint6_linear_66_389)"/>
<path d="M128.677 624.783L64.155 634.893C59.136 635.68 55.705 640.385 56.4917 645.403L70.0228 731.714C70.8095 736.732 75.5158 740.162 80.5348 739.376L145.057 729.265C150.076 728.479 153.507 723.774 152.72 718.756L139.189 632.445C138.402 627.427 133.696 623.997 128.677 624.783Z" fill="url(#paint7_linear_66_389)"/>
<path d="M77.2436 662.919L75.4951 651.766L79.8954 651.077C80.7413 650.944 81.4873 650.993 82.1333 651.223C82.7788 651.449 83.3024 651.823 83.704 652.344C84.1086 652.86 84.369 653.489 84.4851 654.23C84.6012 654.97 84.5439 655.649 84.3132 656.265C84.0825 656.882 83.6888 657.395 83.132 657.806C82.5788 658.217 81.8739 658.489 81.017 658.623L78.2124 659.063L77.9162 657.173L80.3396 656.793C80.7934 656.722 81.1551 656.585 81.4247 656.383C81.6974 656.177 81.8844 655.923 81.9858 655.62C82.0903 655.314 82.1137 654.977 82.0563 654.61C81.9982 654.24 81.8731 653.929 81.681 653.676C81.492 653.419 81.2366 653.238 80.915 653.132C80.5929 653.023 80.203 653.004 79.7456 653.075L78.1554 653.325L79.6016 662.55L77.2436 662.919Z" fill="#F3CF4E"/>
<path d="M87.8071 661.264L85.2803 661.66L87.382 649.904L90.4208 649.428L96.014 659.978L93.4871 660.374L89.3445 652.207L89.2574 652.221L87.8071 661.264ZM86.962 656.905L92.9306 655.97L93.2192 657.81L87.2505 658.746L86.962 656.905Z" fill="#F3CF4E"/>
<path d="M101.907 650.914C101.794 650.482 101.554 650.17 101.185 649.978C100.817 649.787 100.349 649.735 99.7828 649.824C99.3979 649.884 99.0815 649.99 98.8336 650.14C98.5851 650.287 98.4048 650.466 98.2928 650.677C98.1844 650.887 98.149 651.112 98.1866 651.352C98.2107 651.553 98.2797 651.721 98.3938 651.855C98.5116 651.989 98.6606 652.098 98.8411 652.181C99.021 652.261 99.2243 652.324 99.451 652.37C99.6772 652.413 99.9161 652.442 100.168 652.459L101.208 652.541C101.711 652.574 102.18 652.649 102.615 652.767C103.051 652.885 103.438 653.053 103.777 653.271C104.116 653.49 104.396 653.766 104.615 654.1C104.839 654.433 104.989 654.832 105.065 655.296C105.169 655.979 105.087 656.598 104.821 657.153C104.557 657.704 104.124 658.168 103.521 658.545C102.921 658.918 102.168 659.176 101.26 659.318C100.36 659.459 99.5538 659.444 98.8425 659.273C98.1348 659.101 97.5516 658.774 97.0929 658.291C96.6372 657.805 96.3374 657.162 96.1934 656.362L98.4752 656.005C98.5593 656.375 98.7153 656.67 98.9434 656.891C99.1745 657.108 99.4598 657.255 99.7992 657.332C100.142 657.404 100.516 657.409 100.923 657.345C101.322 657.283 101.66 657.17 101.936 657.008C102.215 656.845 102.42 656.648 102.551 656.415C102.682 656.182 102.727 655.932 102.685 655.663C102.645 655.413 102.538 655.214 102.362 655.066C102.19 654.919 101.953 654.807 101.651 654.731C101.353 654.655 100.993 654.6 100.571 654.566L99.3086 654.451C98.3324 654.37 97.5339 654.129 96.913 653.728C96.2922 653.326 95.919 652.713 95.7934 651.889C95.6839 651.214 95.7711 650.596 96.0551 650.034C96.3427 649.472 96.7837 649 97.3783 648.616C97.9729 648.233 98.6768 647.978 99.4901 647.85C100.318 647.721 101.063 647.749 101.724 647.935C102.389 648.121 102.934 648.44 103.358 648.89C103.782 649.341 104.051 649.897 104.167 650.56L101.907 650.914Z" fill="#F3CF4E"/>
<path d="M111.955 649.34C111.843 648.907 111.603 648.595 111.234 648.404C110.866 648.212 110.398 648.161 109.832 648.25C109.447 648.31 109.13 648.415 108.883 648.566C108.634 648.712 108.454 648.891 108.342 649.102C108.233 649.313 108.198 649.538 108.236 649.777C108.26 649.978 108.329 650.146 108.443 650.281C108.56 650.415 108.71 650.523 108.89 650.607C109.07 650.686 109.273 650.749 109.5 650.796C109.726 650.838 109.965 650.868 110.217 650.884L111.256 650.967C111.76 650.999 112.229 651.075 112.664 651.192C113.099 651.31 113.487 651.478 113.826 651.697C114.165 651.915 114.445 652.191 114.664 652.525C114.888 652.858 115.038 653.257 115.114 653.721C115.217 654.404 115.136 655.023 114.87 655.578C114.606 656.129 114.173 656.593 113.57 656.97C112.97 657.343 112.217 657.601 111.309 657.743C110.409 657.884 109.603 657.869 108.891 657.698C108.184 657.526 107.601 657.199 107.142 656.717C106.686 656.23 106.386 655.587 106.242 654.788L108.524 654.43C108.608 654.8 108.764 655.096 108.992 655.316C109.223 655.533 109.509 655.68 109.848 655.757C110.191 655.83 110.565 655.834 110.972 655.771C111.371 655.708 111.709 655.596 111.985 655.433C112.264 655.271 112.469 655.073 112.6 654.84C112.731 654.608 112.776 654.357 112.733 654.089C112.694 653.838 112.587 653.639 112.411 653.492C112.239 653.344 112.002 653.232 111.7 653.157C111.402 653.081 111.042 653.026 110.62 652.991L109.357 652.877C108.381 652.795 107.583 652.554 106.962 652.153C106.341 651.752 105.968 651.139 105.842 650.314C105.733 649.639 105.82 649.021 106.104 648.46C106.392 647.898 106.833 647.425 107.427 647.042C108.022 646.658 108.726 646.403 109.539 646.276C110.367 646.146 111.111 646.174 111.773 646.361C112.438 646.547 112.983 646.865 113.407 647.315C113.831 647.766 114.1 648.323 114.215 648.985L111.955 649.34Z" fill="#F3CF4E"/>
<path d="M117.2 656.658L115.451 645.505L119.851 644.816C120.697 644.683 121.443 644.732 122.089 644.962C122.735 645.188 123.258 645.562 123.66 646.083C124.065 646.6 124.325 647.228 124.441 647.969C124.557 648.71 124.5 649.388 124.269 650.004C124.039 650.621 123.645 651.135 123.088 651.545C122.535 651.956 121.83 652.228 120.973 652.362L118.168 652.802L117.872 650.912L120.296 650.532C120.749 650.461 121.111 650.325 121.381 650.122C121.653 649.916 121.84 649.662 121.942 649.359C122.046 649.053 122.07 648.716 122.012 648.35C121.954 647.979 121.829 647.668 121.637 647.415C121.448 647.158 121.193 646.977 120.871 646.871C120.549 646.762 120.159 646.743 119.702 646.815L118.111 647.064L119.558 656.289L117.2 656.658Z" fill="#F3CF4E"/>
<path d="M98.3521 673.13C98.5427 674.346 98.4744 675.417 98.1471 676.343C97.8234 677.267 97.3011 678.017 96.5802 678.591C95.8624 679.161 95.0115 679.523 94.0277 679.677C93.0365 679.833 92.1117 679.747 91.2533 679.42C90.3949 679.093 89.6701 678.539 89.0789 677.758C88.4877 676.976 88.0971 675.979 87.907 674.767C87.7163 673.551 87.7828 672.48 88.1065 671.555C88.4302 670.63 88.951 669.883 89.6688 669.313C90.386 668.739 91.2402 668.375 92.2314 668.219C93.2153 668.065 94.1364 668.152 94.9948 668.478C95.8563 668.801 96.5826 669.353 97.1738 670.134C97.7686 670.915 98.1614 671.914 98.3521 673.13ZM95.9613 673.505C95.8378 672.717 95.6157 672.071 95.2949 671.567C94.9777 671.062 94.5849 670.704 94.1163 670.491C93.6477 670.278 93.1284 670.216 92.5584 670.305C91.9884 670.394 91.5129 670.612 91.1319 670.958C90.751 671.304 90.4849 671.766 90.3338 672.344C90.1862 672.922 90.1742 673.604 90.2977 674.392C90.4212 675.18 90.6415 675.826 90.9587 676.331C91.2795 676.835 91.6742 677.193 92.1428 677.406C92.6114 677.619 93.1307 677.681 93.7007 677.592C94.2707 677.502 94.7461 677.285 95.1271 676.938C95.508 676.592 95.7723 676.131 95.9198 675.553C96.071 674.975 96.0849 674.292 95.9613 673.505Z" fill="#F3CF4E"/>
<path d="M100.973 678.433L99.2246 667.28L103.625 666.59C104.467 666.458 105.21 666.496 105.852 666.704C106.498 666.908 107.02 667.26 107.418 667.759C107.819 668.254 108.078 668.87 108.193 669.607C108.309 670.348 108.249 671.01 108.014 671.594C107.777 672.174 107.378 672.653 106.816 673.031C106.258 673.409 105.55 673.665 104.694 673.799L101.747 674.261L101.45 672.366L104.015 671.964C104.465 671.893 104.83 671.773 105.108 671.603C105.386 671.433 105.579 671.213 105.685 670.943C105.796 670.673 105.822 670.355 105.764 669.988C105.706 669.618 105.583 669.317 105.394 669.086C105.209 668.855 104.956 668.697 104.634 668.614C104.315 668.526 103.929 668.518 103.475 668.589L101.885 668.838L103.331 678.063L100.973 678.433ZM106.2 672.414L109.768 677.055L107.165 677.463L103.657 672.812L106.2 672.414Z" fill="#F3CF4E"/>
<path d="M109.168 667.714L108.864 665.769L118.024 664.334L118.328 666.278L114.914 666.813L116.358 676.022L114.027 676.387L112.583 667.179L109.168 667.714Z" fill="#F3CF4E"/>
<path d="M124.131 711.6L95.9595 716.014C94.9557 716.172 94.2696 717.113 94.4269 718.116C94.5842 719.12 95.5255 719.806 96.5293 719.648L124.701 715.234C125.705 715.077 126.391 714.136 126.234 713.132C126.076 712.129 125.135 711.443 124.131 711.6Z" fill="#F3CF4E"/>
<path d="M210.006 690.103L143.821 678.766C139.815 678.08 136.011 680.77 135.325 684.775L130.665 711.968C129.979 715.972 132.67 719.775 136.675 720.461L202.861 731.798C206.866 732.484 210.67 729.794 211.357 725.789L216.017 698.596C216.703 694.592 214.012 690.789 210.006 690.103Z" fill="#989CA8"/>
<path d="M158.069 688.204L144.469 685.875C142.967 685.617 141.541 686.626 141.283 688.128L140.196 694.473C139.939 695.975 140.948 697.401 142.45 697.658L156.05 699.988C157.552 700.245 158.978 699.236 159.235 697.734L160.323 691.389C160.58 689.887 159.571 688.461 158.069 688.204Z" fill="#F2F7FB"/>
<path d="M177.72 723.293C186.984 724.88 195.78 718.659 197.367 709.397C198.954 700.136 192.731 691.342 183.467 689.755C174.204 688.169 165.408 694.39 163.821 703.651C162.234 712.913 168.457 721.707 177.72 723.293Z" fill="#31343F"/>
<path d="M178.73 717.401C184.739 718.431 190.444 714.395 191.474 708.388C192.503 702.381 188.467 696.676 182.458 695.647C176.449 694.618 170.744 698.654 169.714 704.661C168.685 710.668 172.721 716.372 178.73 717.401Z" fill="#111827"/>
<path d="M175.84 704.311C177.843 704.654 179.745 703.308 180.088 701.306C180.431 699.304 179.086 697.402 177.083 697.059C175.08 696.716 173.178 698.061 172.835 700.064C172.492 702.066 173.837 703.968 175.84 704.311Z" fill="#DBEAFE"/>
<path d="M200.968 715.612C202.721 715.913 204.385 714.736 204.685 712.983C204.985 711.231 203.808 709.568 202.055 709.267C200.303 708.967 198.639 710.144 198.338 711.896C198.038 713.648 199.216 715.312 200.968 715.612Z" fill="#FF9F43"/>
<path d="M160.907 712.483L147.308 710.153C146.306 709.982 145.355 710.654 145.184 711.655C145.012 712.657 145.685 713.607 146.686 713.779L160.286 716.108C161.288 716.28 162.238 715.607 162.41 714.606C162.582 713.605 161.909 712.654 160.907 712.483Z" fill="#F7D35D"/>
<path opacity="0.55" d="M800.485 699.864L806.877 742.77M864.859 683.432L880.381 732.728M921.015 683.432L892.708 732.728M752.547 724.056L891.795 734.554M704.609 736.379L764.874 690.279L860.75 707.624L800.028 756.006L704.609 736.379ZM750.264 685.258L831.987 699.408L901.383 668.826L971.692 686.171L893.165 737.749L805.507 720.404L745.242 758.289L664.889 745.508L750.264 685.258ZM750.721 691.648L831.074 704.885L896.361 677.042L955.713 691.192L889.056 732.728L804.594 715.84L750.721 748.703V691.648Z" stroke="#2797D2" stroke-width="1.92608"/>
<path d="M986.026 664.044C994.512 664.044 999.14 670.985 996.44 677.926C994.126 683.325 987.955 685.638 984.483 690.651C982.94 692.965 982.555 695.664 982.555 698.749M981.783 711.86H982.169M952.73 583.552L983.961 590.586C990.357 592.026 994.438 598.48 992.997 604.875L991.471 611.647L980.935 609.275L982.376 602.879C982.8 600.998 981.634 599.154 979.753 598.73L953.414 592.799C951.533 592.375 949.689 593.541 949.265 595.422L947.823 601.818L937.288 599.445L938.814 592.673C940.255 586.277 946.334 582.112 952.73 583.552ZM930.932 599.592L996.025 614.251C1001.84 615.561 1005.5 621.339 1004.19 627.157L983.922 717.068C982.611 722.885 976.831 726.539 971.013 725.229L905.92 710.57C900.102 709.259 896.448 703.481 897.759 697.664L918.023 607.753C919.334 601.935 925.114 598.281 930.932 599.592ZM993.502 618.429C995.58 618.897 996.885 620.96 996.417 623.038L974.46 720.47C973.992 722.548 971.928 723.853 969.85 723.385C967.772 722.917 966.467 720.853 966.936 718.775L988.892 621.343C989.361 619.266 991.424 617.961 993.502 618.429ZM931.09 618.544L950.371 618.104C952.075 618.065 953.488 619.414 953.526 621.118L953.859 635.766C953.898 637.469 952.548 638.882 950.844 638.921L931.563 639.36C929.86 639.399 928.447 638.05 928.408 636.347L928.075 621.698C928.037 619.995 929.387 618.582 931.09 618.544ZM967.03 623.897L981.627 630.919C983.163 631.657 983.809 633.501 983.07 635.036L977.383 646.851C976.644 648.386 974.8 649.032 973.265 648.293L958.668 641.271C957.132 640.533 956.486 638.689 957.225 637.154L962.912 625.339C963.651 623.804 965.495 623.158 967.03 623.897ZM937.997 657.709C945.262 648.277 960.302 655.221 954.833 665.453C950.625 673.597 936.937 676.444 936.937 676.444C936.937 676.444 930.572 664.338 937.997 657.709ZM950.981 666.248L972.178 665.394C973.881 665.326 975.317 666.65 975.385 668.352L976.005 683.763C976.073 685.466 974.748 686.901 973.046 686.97L951.848 687.823C950.145 687.892 948.709 686.567 948.641 684.865L948.021 669.454C947.953 667.752 949.278 666.316 950.981 666.248Z" stroke="#2D95D0" stroke-width="2" stroke-linecap="round"/>
<path d="M992.361 727.905C972.506 734.882 957.435 719.974 968.195 702.457C983.247 700.038 993.856 706.401 992.361 727.905Z" fill="#72A84C"/>
<path d="M1002.93 717.876C984.664 699.606 993.217 676.881 1015.21 677.92C1026.99 693.211 1022.35 709.482 1002.93 717.876Z" fill="#72A84C"/>
<path d="M998.531 724.786C974.84 717.147 973.551 694.635 991.582 685.736C1009.63 694.166 1012.99 709.239 998.531 724.786Z" fill="#72A84C"/>
<path opacity="0.9" d="M2.48877 283.664C8.53321 177.023 215.297 134.902 298.796 218.894C447.644 368.621 605.341 373.736 738.844 269.445C826.667 200.84 835.534 128.479 942.933 106.641" stroke="white" stroke-width="4" stroke-linecap="round" stroke-dasharray="10 20"/>
<path d="M882.026 135.386C880.907 135.289 880.703 134.499 881.004 131.492C881.218 129.423 881.579 127.535 881.817 127.299C882.55 126.568 880.806 125.358 879.219 125.508C876.705 124.309 877.352 123.423 879.321 121.76C881.117 120.562 881.101 120.425 878.774 117.339C875.88 113.507 875.995 112.442 879.322 112.34C881.056 112.283 882.825 113.021 884.995 114.714L888.148 117.174L895.768 114.784C901.507 112.988 903.328 112.113 903.151 111.252C902.745 109.288 897.07 98.7827 894.135 94.567C892.588 92.3522 891.517 90.3508 891.749 90.1201C891.981 89.8894 893.305 89.5641 894.7 89.3978C896.507 89.1817 898.068 89.723 900.178 91.3116C901.818 92.5387 904.227 93.5783 905.593 93.6479L908.057 93.7712L907.64 95.8347C907.042 98.8202 909.19 100.59 912.416 99.7575C915.812 98.8865 917.563 100.821 915.608 103.282C914.453 104.726 914.505 105.209 916.007 106.705C917.579 108.272 918.369 108.293 924.161 106.893C933.711 104.588 936.622 104.321 940.09 105.442C945.952 107.344 946.295 108.946 941.787 113.434C939.089 116.12 937.23 116.868 927.565 119.157C921.174 120.673 919.764 121.641 919.027 125.027C918.824 125.971 919.168 126.382 920.489 126.781C921.848 127.185 922.218 127.679 922.216 129.023C922.205 131.261 921.846 131.553 918.716 131.93C916.305 132.223 916.068 132.415 915.646 134.375C915.314 135.917 915.628 136.805 916.771 137.578C918.816 138.969 917.91 141.247 915.264 141.382C913.507 141.472 913.242 141.746 911.599 145.183C909.94 148.669 909.703 148.916 907.494 149.38C904.527 149.998 904.074 149.521 904.498 146.185C905.385 139.21 906.177 124.406 905.679 124.17C905.367 124.034 901.688 124.323 897.493 124.833L889.876 125.748L887.864 129.432C886.369 132.628 885.159 133.84 882.026 135.386Z" fill="#EF917E"/>
</g>
<defs>
<linearGradient id="paint0_linear_66_389" x1="2.84424" y1="0" x2="2.84424" y2="727.289" gradientUnits="userSpaceOnUse">
<stop stop-color="#FFE1CE"/>
<stop offset="0.55" stop-color="#FFF1E7"/>
<stop offset="1" stop-color="#FFFAF6"/>
</linearGradient>
<linearGradient id="paint1_linear_66_389" x1="81.7778" y1="9.95312" x2="81.7778" y2="41.2486" gradientUnits="userSpaceOnUse">
<stop stop-color="white"/>
<stop offset="1" stop-color="#FFF6EF"/>
</linearGradient>
<linearGradient id="paint2_linear_66_389" x1="853.333" y1="41.2344" x2="853.333" y2="72.5299" gradientUnits="userSpaceOnUse">
<stop stop-color="white"/>
<stop offset="1" stop-color="#FFF6EF"/>
</linearGradient>
<linearGradient id="paint3_linear_66_389" x1="629.333" y1="106.641" x2="629.333" y2="178.445" gradientUnits="userSpaceOnUse">
<stop stop-color="white"/>
<stop offset="1" stop-color="#FFF6EF"/>
</linearGradient>
<linearGradient id="paint4_linear_66_389" x1="238.222" y1="62.5625" x2="238.222" y2="99.763" gradientUnits="userSpaceOnUse">
<stop stop-color="white"/>
<stop offset="1" stop-color="#FFF6EF"/>
</linearGradient>
<linearGradient id="paint5_linear_66_389" x1="1058.65" y1="131.523" x2="1058.65" y2="198.253" gradientUnits="userSpaceOnUse">
<stop stop-color="white"/>
<stop offset="1" stop-color="#FFF6EF"/>
</linearGradient>
<linearGradient id="paint6_linear_66_389" x1="-8.5332" y1="131.523" x2="-8.5332" y2="155.399" gradientUnits="userSpaceOnUse">
<stop stop-color="white"/>
<stop offset="1" stop-color="#FFF6EF"/>
</linearGradient>
<linearGradient id="paint7_linear_66_389" x1="55.0674" y1="636.317" x2="137.764" y2="623.353" gradientUnits="userSpaceOnUse">
<stop stop-color="#00866F"/>
<stop offset="1" stop-color="#00665F"/>
</linearGradient>
<clipPath id="clip0_66_389">
<rect width="1024" height="728" fill="white"/>
</clipPath>
</defs>
</svg>
