<svg width="512" height="512" viewBox="0 0 512 512" fill="none" xmlns="http://www.w3.org/2000/svg">
<g clip-path="url(#clip0_66_196)">
<path d="M348.196 347.252C341.902 348.766 338.66 348.813 255.663 348.766C250.614 348.766 245.85 348.758 241.331 348.758C174.427 348.734 164.629 348.726 156.377 345.159C154.403 344.303 152.516 343.248 149.964 341.933C144.05 338.896 141.292 336.804 135.101 330.636C128.6 324.16 126.967 321.98 123.797 315.535C121.759 311.397 119.302 305.151 118.335 301.663C116.583 295.361 116.567 294.877 116.298 223.185C116.107 171.532 116.29 149.471 116.94 145.5C120.372 124.501 133 107.41 152.215 97.7393C161.109 93.2605 164.431 92.6185 180.951 92.1983L196.21 91.802V81.7346C196.21 71.2392 197.17 66.1817 200.364 59.9193C202.608 55.5039 210.019 47.9812 214.831 45.2305C222.631 40.7596 225.326 40.4663 258.137 40.4663C285.184 40.4663 288.481 40.609 292.825 41.9566C299.429 44.0176 303.725 46.697 308.497 51.7465C316.171 59.8559 318.263 66.2213 318.279 81.4889L318.287 91.9922H330.209C343.337 91.9922 350.614 93.1258 358.731 96.4234C376.123 103.486 389.33 119.301 394.371 139.087C395.917 145.151 395.972 147.767 395.972 219.586V293.823L394.086 300.91C391.05 312.357 387.403 319.348 379.96 328.044C372.318 336.962 359.976 344.43 348.196 347.252ZM180.927 322.051C183.416 324.572 185.659 326.633 185.897 326.633C186.143 326.633 189.353 323.597 193.04 319.895C196.726 316.193 200.118 313.157 200.57 313.157C201.022 313.157 204.415 316.193 208.101 319.895C211.787 323.597 215.18 326.633 215.632 326.633C216.084 326.633 219.651 323.423 223.559 319.499L230.661 312.365L237.827 319.499C241.767 323.423 245.35 326.633 245.794 326.633C246.23 326.633 248.902 324.287 251.724 321.417C254.546 318.556 257.843 315.488 259.056 314.608L261.268 313.015L276.345 326.855L283.345 320.006C287.189 316.241 290.661 313.157 291.05 313.157C291.446 313.157 294.783 316.193 298.47 319.895C302.156 323.597 305.525 326.633 305.961 326.633C306.397 326.633 308.806 324.596 311.327 322.099L315.909 317.565V223.455L319.991 218.762C323.995 214.156 324.05 214.029 322.631 212.46C321.181 210.866 321.173 210.866 318.541 213.411L315.909 215.964V127.696L314.125 127.26C313.143 127.022 281.839 126.927 244.565 127.046L176.789 127.268L176.543 129.844C176.298 132.404 176.266 132.42 171.985 132.42C168.244 132.42 167.673 132.214 167.673 130.882C167.673 128.576 166.373 128.219 164.669 130.05C163.329 131.485 163.036 131.532 162.156 130.47C160.658 128.679 161.831 125.373 164.97 122.496C167.427 120.244 167.586 119.864 166.46 118.928C163.583 116.534 158.533 120.767 157.629 126.348C157.249 128.687 157.518 129.852 158.842 131.643C159.778 132.912 160.539 134.132 160.539 134.37C160.539 134.608 159.08 134.798 157.296 134.798C153.159 134.798 144.32 139.602 142.283 142.955C140.182 146.412 126.452 184.786 126.452 187.204C126.452 188.33 127.094 189.836 127.887 190.549C129.686 192.174 152.659 200.593 155.299 200.593C157.931 200.593 159.476 198.873 160.864 194.41C162.108 190.399 167.594 174.957 171.565 164.271C172.913 160.649 174.015 156.463 174.015 154.981C174.015 150.993 169.568 140.268 167.047 138.167L164.898 136.392L176.393 136.384V298.667L173.024 299.372C170.146 299.982 169.655 300.379 169.655 302.059C169.655 303.827 170.027 304.065 173.024 304.287L176.393 304.525V317.47L180.927 322.051ZM608.299 281.108C604.415 283.122 600.665 282.575 597.637 279.547L594.942 276.851L594.95 236.939C594.966 206.602 595.203 196.558 595.956 195.068C597.605 191.81 602.028 189.297 605.247 189.796C608.148 190.256 612.381 194.077 612.381 196.249C612.381 197.89 612.698 197.771 616.694 194.727C622.116 190.581 627.078 189.257 635.647 189.638C642.028 189.923 643.503 190.288 647.894 192.634C653.871 195.829 660.229 202.488 662.924 208.369C670.677 225.254 663.931 244.549 647.435 252.698C641.727 255.52 640.982 255.686 633.824 255.686C625.35 255.686 621.323 254.354 616.202 249.852C614.641 248.48 613.142 247.363 612.873 247.363C612.603 247.363 612.381 253.768 612.381 261.592C612.381 277.065 611.929 279.237 608.299 281.108ZM479.817 254.497C478.39 255.361 476.155 256.074 474.847 256.074C471.723 256.074 467.474 253.427 466.507 250.874C466.04 249.669 465.731 234.465 465.731 213.276V177.708L437.058 177.208L434.656 174.521C432.532 172.135 432.302 171.413 432.667 168.203C432.96 165.579 433.658 164.073 435.18 162.765L437.28 160.958H474.458C500.015 160.958 512.239 161.235 513.562 161.838C515.917 162.908 517.256 165.643 517.256 169.368C517.256 176.518 514.656 177.604 497.478 177.604H483.963V213.221C483.963 234.449 483.654 249.669 483.186 250.874C482.766 252 481.252 253.625 479.817 254.497ZM217.613 82.9316V91.9922H297.867L297.526 82.2816C297.162 72.0398 296.408 69.4397 292.802 66.0866C289.306 62.8286 287.554 62.6621 257.566 62.6621C226.159 62.6621 225.525 62.7414 221.426 67.125C218.208 70.5654 217.613 73.0386 217.613 82.9316ZM525.556 254.957C524.066 255.575 522.219 256.082 521.442 256.082C519.476 256.074 515.148 253.316 514.133 251.421C513.586 250.391 513.293 240.292 513.293 222.456V195.068L515.473 192.626C517.027 190.89 518.612 190.058 520.998 189.741C524.05 189.329 524.597 189.543 527.142 192.087C529.21 194.156 529.94 195.567 529.94 197.486V200.086L532.801 196.748C535.909 193.118 539.492 190.977 544.93 189.519C553.887 187.101 561.172 195.536 555.727 202.004C554.038 204.017 553.071 204.39 548.767 204.739C540.554 205.397 535.513 208.758 532.381 215.654C530.947 218.833 530.764 220.839 530.748 234.124C530.733 250.922 530.209 253.007 525.556 254.957ZM347.697 190.534C349.663 192.912 350.384 193.332 351.264 192.595C352.691 191.413 352.667 189.178 351.161 184.105L349.94 180.006L354.783 173.855C357.447 170.462 359.896 167.601 360.221 167.474C360.752 167.283 370.931 178.492 375.354 184.144C377.471 186.847 378.144 186.863 379.841 184.279C381.101 182.353 381.093 182.004 379.762 178.302C378.454 174.648 378.446 174.259 379.651 172.928C381.466 170.922 380.467 168.631 377.978 169.107C376.591 169.376 375.719 168.964 374.839 167.616C373.721 165.904 373.753 165.595 375.283 163.645C377.272 161.116 377.32 160.649 375.703 159.031C374.728 158.064 374.102 157.977 372.825 158.667C371.581 159.333 371.034 159.285 370.495 158.461C368.569 155.496 368.886 153.784 372.405 148.084C377.732 139.467 378.533 137.589 378.533 133.712C378.533 127.236 377.122 126.332 371.502 129.194C368.18 130.89 366.27 133.181 361.038 141.727C357.867 146.911 357.28 147.466 355.005 147.474C352.833 147.482 352.445 147.173 352.231 145.302C351.858 142.123 349.187 141.996 347.364 145.072C345.636 147.997 342.798 148.274 341.062 145.698L339.865 143.914L337.994 145.603C336.955 146.538 334.458 147.529 332.381 147.83C329.702 148.211 328.18 148.948 327.031 150.407C326.143 151.532 325.422 152.721 325.422 153.054C325.422 153.387 327.649 154.053 330.376 154.529C335.56 155.44 347.292 158.897 349.012 160.014C349.766 160.506 349.084 162.448 346.238 167.878L342.465 175.092L338.398 175.599C335.6 175.948 333.785 176.693 332.572 177.985C330.241 180.458 330.931 181.306 335.806 181.972C339.73 182.511 339.841 182.599 339.413 184.755C338.85 187.545 340.562 189.329 342.06 187.521C343.099 186.269 345.239 185.88 345.239 186.935C345.239 187.275 346.349 188.893 347.697 190.534ZM580.031 253.126C577.169 255.995 573.206 256.598 569.583 254.735C564.898 252.317 564.843 251.952 564.835 223.185C564.819 193.467 564.985 192.499 570.534 190.415C574.125 189.059 576.757 189.646 579.928 192.484L582.346 194.648L582.243 250.922L580.031 253.126ZM623.083 239.705C625.778 241.124 634.157 241.441 637.296 240.252C638.406 239.824 640.935 237.993 642.9 236.178C650.479 229.194 650.701 216.915 643.408 209.043C635.37 200.379 621.291 202.495 615.227 213.276C613.158 216.962 612.786 218.437 612.833 222.789C612.928 230.399 616.448 236.217 623.083 239.705ZM579.111 177.192C572.54 180.593 565.057 176.701 564.24 169.463C563.844 165.936 563.994 165.563 566.999 162.551C569.694 159.856 570.685 159.372 573.483 159.372C579.65 159.372 583.844 163.225 583.844 168.885C583.844 172.301 581.87 175.773 579.111 177.192ZM204.954 184.049C202.362 186.633 198.795 187.022 195.243 185.088C190.907 182.733 190.075 176.986 193.483 172.935C197.495 168.171 204.629 169.249 207.031 174.996C208.497 178.508 207.903 181.092 204.954 184.049ZM205.097 250.613C201.292 254.013 195.473 253.546 192.73 249.622C189.116 244.461 192.984 237.057 199.31 237.057C206.96 237.057 210.638 245.666 205.097 250.613ZM204.042 218.326C201.775 219.919 198.113 219.943 195.243 218.381C188.363 214.648 191.272 203.764 199.143 203.764C205.112 203.764 209.155 209.218 207.007 214.362C206.389 215.829 205.057 217.612 204.042 218.326ZM125.763 279.269C126.627 280.878 126.849 280.926 128.815 279.872C130.178 279.142 130.202 278.801 129.163 274.917C127.736 269.551 127.784 258.968 129.25 254.893C129.354 254.608 129.449 254.354 129.536 254.109C130.21 252.254 130.432 251.627 130.233 251.421C130.13 251.31 129.916 251.318 129.591 251.326C129.512 251.326 129.417 251.326 129.322 251.326C127.943 251.326 125.319 257.43 124.074 263.534C123.107 268.266 123.924 275.821 125.763 279.269ZM155.782 303.209C163.551 304.874 163.709 304.842 163.709 301.782C163.709 299.126 163.702 299.118 158.359 298.143C155.418 297.604 152.096 296.986 150.986 296.772C149.377 296.455 148.767 296.804 148.022 298.445C147.182 300.292 147.269 300.601 148.854 301.306C149.829 301.742 152.952 302.598 155.782 303.209ZM137.899 295.821C140.975 297.692 141.688 297.676 142.917 295.71C143.82 294.267 143.432 293.657 138.953 289.392C136.218 286.8 133.595 284.659 133.111 284.644C132.635 284.636 131.676 285.246 130.987 286.015C129.813 287.307 129.932 287.672 132.596 290.874C134.181 292.785 136.567 295.004 137.899 295.821ZM325.913 206.546C326.729 207.172 327.633 207.688 327.926 207.704C328.386 207.727 335.402 198.54 336.86 196.003C337.526 194.838 336.028 192.666 334.569 192.666C334.038 192.666 331.541 195.536 329.012 199.039C324.645 205.111 324.494 205.476 325.913 206.546ZM160.539 147.973C160.539 149.471 157.431 149.36 156.853 147.846C156.226 146.213 156.694 145.865 158.787 146.419C159.754 146.665 160.539 147.371 160.539 147.973Z" fill="#066AEF"/>
<path d="M1047.84 253.673C1045.38 255.599 1040 255.845 1037.56 254.132C1034.12 251.731 1034.05 250.621 1034.28 206.261L1034.5 163.994L1037.09 161.687C1040.66 158.484 1044.98 158.484 1048.55 161.687L1051.14 163.994L1051.63 198.278L1054.07 196.225C1059.58 191.588 1062.41 190.684 1071.36 190.684C1078.83 190.684 1080.09 190.898 1083.65 192.785C1093.04 197.747 1099.6 206.847 1101.55 217.589C1104.11 231.659 1096.26 246.816 1083.34 252.769C1076.76 255.797 1065.85 256.217 1060.54 253.649C1058.46 252.642 1055.45 250.637 1053.85 249.186L1050.93 246.546L1050.41 249.297C1050.11 250.874 1049.02 252.745 1047.84 253.673ZM694.022 254.901C692.762 255.551 690.732 256.082 689.511 256.082C686.856 256.075 682.575 253.617 681.394 251.421C680.831 250.367 680.554 236.082 680.554 208.1V166.348L683.249 163.653C685.461 161.441 686.547 160.958 689.274 160.958C693.158 160.958 696.709 162.813 697.922 165.484C698.453 166.649 698.786 173.728 698.786 183.986V200.593H747.141L747.149 185.333C747.149 176.939 747.514 168.75 747.966 167.141C749.123 162.963 752.008 160.958 756.836 160.958C760.26 160.958 761.132 161.314 763.471 163.653L766.166 166.348V249.249L764.398 251.826C759.468 259.031 749.567 256.812 747.894 248.132C747.522 246.182 747.197 238.255 747.173 230.518L747.141 216.447H698.786V233.316C698.786 251.754 698.62 252.523 694.022 254.901ZM917.969 253.514C914.83 255.107 912.531 255.591 906.872 255.837C900.641 256.106 899.151 255.9 895.108 254.196C882.417 248.829 875.211 238.944 874.188 225.476C872.777 206.871 886.301 190.708 904.16 189.662C911.802 189.21 917.652 190.835 922.084 194.616C923.883 196.162 925.524 197.422 925.722 197.422C925.928 197.422 926.309 196.368 926.562 195.084C927.109 192.341 929.725 190.407 933.728 189.757C936.281 189.337 936.915 189.63 939.761 192.468L942.94 195.647V222.337C942.94 251.635 942.813 252.499 938.207 254.878C935.084 256.495 932.753 256.392 929.638 254.497C927.957 253.467 926.879 252.071 926.57 250.534C926.007 247.711 925.46 247.593 923.447 249.828C922.615 250.748 920.149 252.404 917.969 253.514ZM993.411 254.901C988.306 256.415 980.007 256.352 975.488 254.774C952.206 246.625 945.778 215.924 963.685 198.453C969.622 192.658 975.71 190.002 983.915 189.63C991.786 189.273 996.796 190.716 1001.42 194.672C1003.19 196.186 1004.79 197.422 1004.99 197.422C1005.2 197.422 1005.58 196.352 1005.84 195.044C1006.96 189.455 1014.93 188.06 1019.24 192.714L1021.42 195.068V250.652L1019.1 252.975C1015.97 256.098 1010.44 256.273 1007.51 253.348C1006.44 252.277 1005.56 250.668 1005.56 249.78C1005.56 247.624 1005.28 247.696 1001.04 250.938C999.032 252.468 995.599 254.251 993.411 254.901ZM848.766 255.195C836.027 257.898 819.111 254.331 812.793 247.608C810.169 244.81 810.32 240.101 813.134 237.295C816.21 234.22 819.396 234.473 825.58 238.286C830.367 241.243 831.049 241.433 837.938 241.687C843.495 241.893 845.817 241.655 847.688 240.688C852.611 238.144 852.983 233.038 848.378 231.144C846.983 230.573 843.154 229.868 839.888 229.59C824.842 228.298 818.287 225.769 814.204 219.681C807.767 210.074 812.302 198.223 824.604 192.468C833.808 188.163 847.696 188.599 857.415 193.498C865.143 197.406 867.038 201.521 863.201 206.079C861.537 208.06 860.546 208.52 857.977 208.52C856.011 208.52 853.895 207.878 852.436 206.84C843.059 200.165 825.572 202.694 827.514 210.446C828.172 213.07 832.738 214.648 842.409 215.583C850.605 216.384 856.971 218.167 860.942 220.767C861.996 221.457 863.931 223.891 865.239 226.174C867.094 229.416 867.617 231.271 867.609 234.679C867.585 245.024 860.538 252.69 848.766 255.195ZM292.318 301.83C289.353 303.558 287.554 303.986 282.29 304.176C271.731 304.556 264.993 300.736 260.665 291.929C256.313 283.058 258.168 272.412 265.184 266.078C270.741 261.061 274.3 259.666 281.426 259.697C291.145 259.753 297.32 263.55 301.593 272.095C306.951 282.813 302.964 295.583 292.318 301.83ZM163.456 176.479C157.399 193.324 155.79 197.05 154.538 197.153C152.389 197.335 130.217 188.52 129.821 187.323C129.647 186.792 130.638 183.399 132.041 179.792C133.436 176.194 136.67 167.244 139.231 159.919C141.791 152.587 144.24 145.936 144.669 145.135C145.62 143.352 152.889 139.174 156.377 138.405C158.763 137.882 158.953 137.993 158.953 139.888C158.953 141.346 158.533 141.933 157.487 141.933C155.33 141.933 153.404 144.485 153.404 147.347C153.404 152.492 159.294 154.909 162.782 151.199C164.756 149.091 164.978 146.848 163.424 144.723C162.401 143.328 162.528 140.331 163.606 140.363C165.469 140.403 170.844 150.97 170.844 154.592C170.844 155.329 167.522 165.175 163.456 176.479ZM794.696 254.901C793.435 255.551 791.58 256.082 790.582 256.082C788.243 256.075 783.962 253.467 782.837 251.366C782.234 250.248 782.036 241.1 782.187 222.075C782.448 191.017 782.242 192.024 788.449 190.169C792.056 189.083 795.496 190.216 797.898 193.276C799.381 195.163 799.46 196.614 799.46 222.717V223.756C799.46 246.594 799.46 251.247 797.137 253.395C796.511 253.974 795.71 254.37 794.696 254.901ZM982.377 240.545C987.292 242.059 987.989 242.052 992.801 240.498C998.144 238.778 1002.55 234.045 1004.46 227.997C1005.68 224.128 1005.75 222.884 1004.93 218.984C1003.64 212.769 1000.56 208.615 995.25 205.88C991.588 203.994 990.233 203.7 986.697 204.041C976.82 205 969.86 213.102 969.908 223.574C969.947 230.851 975.52 238.437 982.377 240.545ZM901.719 240.133C905.151 241.497 912.595 241.164 915.821 239.507C922.464 236.09 925.849 230.312 925.873 222.329C925.896 217.446 925.587 216.217 923.503 212.84C913.633 196.891 891.437 203.589 891.2 222.583C891.152 226.57 891.556 228.75 892.793 231.112C894.719 234.798 898.881 239.008 901.719 240.133ZM1062.51 239.959C1066.98 241.624 1073.02 240.902 1077.43 238.175C1088.84 231.12 1088.05 212.23 1076.1 206.134C1072.17 204.128 1065.72 204.089 1061.4 206.055C1057.34 207.902 1052.57 213.427 1051.45 217.589C1048.95 226.863 1053.82 236.725 1062.51 239.959ZM797.803 176.36C795.837 178.009 794.545 178.397 790.994 178.397C787.078 178.397 786.341 178.12 783.923 175.702C781.616 173.395 781.228 172.46 781.228 169.265C781.228 165.983 781.6 165.151 784.303 162.448C786.943 159.816 787.878 159.372 790.843 159.372C800.728 159.38 805.144 170.177 797.803 176.36ZM272.302 288.972C275.124 291.818 277.661 294.053 277.954 293.942C278.469 293.744 291.034 280.411 294.03 276.883C295.489 275.171 295.497 275.052 294.11 273.522C293.317 272.65 292.278 271.937 291.787 271.937C291.303 271.937 287.895 274.965 284.209 278.667L277.51 285.397L274.498 282.448C272.088 280.094 271.208 279.665 270.162 280.331C266.698 282.511 266.967 283.589 272.302 288.972Z" fill="#0B9B44"/>
<rect x="216.028" y="172.848" width="84.8196" height="9.51248" rx="4.75624" fill="#595959"/>
<rect x="216.028" y="207.728" width="84.8196" height="9.51248" rx="4.75624" fill="#595959"/>
<rect x="216.028" y="241.021" width="84.8196" height="9.51248" rx="4.75624" fill="#595959"/>
</g>
<g clip-path="url(#clip1_66_196)">
<path d="M-49.544 532.614C-54.1407 533.722 -56.5086 533.757 -117.122 533.722C-120.81 533.722 -124.29 533.717 -127.59 533.717C-176.451 533.699 -183.607 533.693 -189.633 531.082C-191.075 530.456 -192.453 529.684 -194.317 528.721C-198.636 526.499 -200.65 524.967 -205.172 520.453C-209.919 515.713 -211.112 514.117 -213.427 509.4C-214.915 506.372 -216.71 501.8 -217.416 499.247C-218.696 494.634 -218.707 494.281 -218.904 441.808C-219.043 404.002 -218.91 387.855 -218.435 384.948C-215.928 369.579 -206.706 357.07 -192.673 349.991C-186.177 346.713 -183.751 346.243 -171.687 345.936L-160.542 345.646V338.277C-160.542 330.595 -159.842 326.894 -157.509 322.31C-155.87 319.079 -150.457 313.573 -146.943 311.559C-141.246 308.287 -139.278 308.072 -115.316 308.072C-95.5631 308.072 -93.1548 308.177 -89.9823 309.163C-85.1598 310.672 -82.022 312.633 -78.5368 316.328C-72.9328 322.264 -71.4044 326.923 -71.3928 338.097L-71.387 345.785H-62.68C-53.0929 345.785 -47.7783 346.615 -41.8501 349.028C-29.1484 354.198 -19.5034 365.773 -15.8214 380.255C-14.6925 384.693 -14.652 386.608 -14.652 439.173V493.509L-16.0298 498.696C-18.2471 507.074 -20.9102 512.191 -26.3463 518.556C-31.9272 525.083 -40.9412 530.549 -49.544 532.614ZM-171.704 514.17C-169.886 516.015 -168.248 517.523 -168.074 517.523C-167.895 517.523 -165.55 515.301 -162.858 512.592C-160.166 509.882 -157.688 507.66 -157.358 507.66C-157.028 507.66 -154.55 509.882 -151.858 512.592C-149.166 515.301 -146.688 517.523 -146.358 517.523C-146.028 517.523 -143.423 515.173 -140.569 512.301L-135.382 507.08L-130.148 512.301C-127.271 515.173 -124.654 517.523 -124.33 517.523C-124.012 517.523 -122.061 515.806 -120 513.706C-117.939 511.611 -115.53 509.366 -114.645 508.722L-113.029 507.555L-102.018 517.686L-96.9062 512.673C-94.0984 509.917 -91.5627 507.66 -91.2791 507.66C-90.9896 507.66 -88.5523 509.882 -85.8603 512.592C-83.1683 515.301 -80.7078 517.523 -80.3894 517.523C-80.071 517.523 -78.311 516.032 -76.47 514.205L-73.1238 510.886V442.005L-70.1424 438.57C-67.2188 435.199 -67.1782 435.106 -68.2145 433.958C-69.2739 432.791 -69.2797 432.791 -71.2018 434.654L-73.1238 436.522V371.917L-74.4264 371.598C-75.1443 371.424 -98.0062 371.354 -125.227 371.441L-174.726 371.604L-174.905 373.489C-175.085 375.363 -175.108 375.375 -178.234 375.375C-180.967 375.375 -181.384 375.224 -181.384 374.249C-181.384 372.561 -182.333 372.3 -183.578 373.64C-184.556 374.69 -184.77 374.725 -185.413 373.948C-186.507 372.637 -185.65 370.217 -183.358 368.111C-181.563 366.463 -181.447 366.185 -182.269 365.5C-184.371 363.748 -188.059 366.846 -188.719 370.931C-188.997 372.642 -188.8 373.495 -187.833 374.806C-187.15 375.735 -186.594 376.628 -186.594 376.802C-186.594 376.976 -187.659 377.116 -188.962 377.116C-191.984 377.116 -198.439 380.632 -199.927 383.086C-201.461 385.616 -211.488 413.703 -211.488 415.472C-211.488 416.296 -211.019 417.399 -210.44 417.921C-209.126 419.11 -192.349 425.272 -190.421 425.272C-188.499 425.272 -187.37 424.013 -186.357 420.746C-185.448 417.811 -181.442 406.508 -178.541 398.687C-177.557 396.036 -176.752 392.972 -176.752 391.887C-176.752 388.969 -180 381.119 -181.841 379.581L-183.41 378.282L-175.015 378.276V497.054L-177.476 497.57C-179.577 498.017 -179.936 498.307 -179.936 499.537C-179.936 500.831 -179.664 501.005 -177.476 501.168L-175.015 501.342V510.816L-171.704 514.17ZM140.414 484.203C137.578 485.676 134.839 485.276 132.628 483.06L130.659 481.087L130.665 451.874C130.677 429.67 130.85 422.319 131.4 421.228C132.605 418.843 135.835 417.004 138.185 417.37C140.304 417.706 143.396 420.503 143.396 422.092C143.396 423.294 143.627 423.206 146.545 420.979C150.505 417.944 154.129 416.975 160.387 417.254C165.048 417.463 166.125 417.729 169.332 419.447C173.697 421.785 178.34 426.659 180.308 430.964C185.97 443.322 181.044 457.444 168.996 463.408C164.828 465.474 164.284 465.596 159.056 465.596C152.867 465.596 149.926 464.621 146.186 461.325C145.046 460.322 143.952 459.504 143.755 459.504C143.558 459.504 143.396 464.192 143.396 469.918C143.396 481.244 143.066 482.833 140.414 484.203ZM46.5814 464.725C45.5394 465.358 43.9067 465.88 42.9515 465.88C40.6705 465.88 37.5675 463.942 36.8612 462.074C36.5196 461.192 36.2938 450.064 36.2938 434.555V408.522L15.3539 408.156L13.5998 406.189C12.0483 404.443 11.8804 403.915 12.1467 401.565C12.3609 399.645 12.8703 398.542 13.9819 397.585L15.516 396.262H42.6678C61.3325 396.262 70.2596 396.465 71.2264 396.906C72.9459 397.689 73.9242 399.691 73.9242 402.418C73.9242 407.651 72.0254 408.446 59.4799 408.446H49.6092V434.515C49.6092 450.052 49.3834 461.192 49.0419 462.074C48.735 462.898 47.6293 464.087 46.5814 464.725ZM-144.911 339.153V345.785H-86.3003L-86.5492 338.678C-86.8155 331.181 -87.3655 329.278 -89.9996 326.824C-92.5527 324.44 -93.8321 324.318 -115.733 324.318C-138.67 324.318 -139.133 324.376 -142.126 327.584C-144.477 330.102 -144.911 331.913 -144.911 339.153ZM79.9856 465.062C78.8972 465.514 77.5484 465.886 76.981 465.886C75.5453 465.88 72.3843 463.861 71.6433 462.474C71.2438 461.72 71.0296 454.328 71.0296 441.274V421.228L72.6217 419.441C73.7564 418.17 74.9142 417.561 76.6568 417.329C78.8857 417.027 79.2851 417.184 81.1435 419.046C82.6545 420.561 83.1871 421.594 83.1871 422.998V424.901L85.2771 422.458C87.5465 419.801 90.1632 418.234 94.1347 417.167C100.677 415.397 105.997 421.57 102.02 426.305C100.787 427.778 100.08 428.051 96.9367 428.306C90.939 428.788 87.257 431.248 84.9702 436.296C83.9224 438.622 83.7892 440.09 83.7777 449.814C83.7661 462.109 83.384 463.635 79.9856 465.062ZM-49.9088 417.909C-48.473 419.65 -47.9462 419.957 -47.3036 419.418C-46.2615 418.553 -46.2789 416.917 -47.3788 413.204L-48.2704 410.204L-44.7331 405.702C-42.7879 403.219 -40.9991 401.124 -40.7617 401.031C-40.3738 400.892 -32.9403 409.096 -29.7099 413.233C-28.1642 415.211 -27.6721 415.223 -26.4332 413.332C-25.5127 411.922 -25.5185 411.666 -26.4911 408.957C-27.4463 406.282 -27.4521 405.998 -26.5721 405.023C-25.2464 403.555 -25.9758 401.878 -27.7937 402.227C-28.8068 402.424 -29.4436 402.122 -30.0862 401.136C-30.9025 399.883 -30.8794 399.656 -29.762 398.229C-28.3089 396.378 -28.2742 396.036 -29.4552 394.852C-30.1673 394.144 -30.6246 394.081 -31.5567 394.585C-32.4656 395.073 -32.8651 395.038 -33.2588 394.435C-34.6656 392.265 -34.434 391.011 -31.8635 386.84C-27.9731 380.533 -27.3884 379.158 -27.3884 376.321C-27.3884 371.581 -28.4189 370.919 -32.5235 373.014C-34.9492 374.255 -36.3445 375.932 -40.1654 382.187C-42.4811 385.981 -42.9095 386.387 -44.571 386.393C-46.1573 386.399 -46.441 386.173 -46.5973 384.803C-46.8694 382.477 -48.8204 382.384 -50.1519 384.635C-51.414 386.776 -53.4865 386.979 -54.7544 385.093L-55.6286 383.788L-56.9949 385.024C-57.7533 385.708 -59.5769 386.434 -61.0937 386.654C-63.0505 386.933 -64.162 387.472 -65.0015 388.54C-65.6499 389.364 -66.1767 390.234 -66.1767 390.478C-66.1767 390.721 -64.5499 391.209 -62.5584 391.557C-58.7722 392.224 -50.204 394.754 -48.9477 395.572C-48.3978 395.931 -48.8956 397.353 -50.974 401.327L-53.7297 406.607L-56.6996 406.978C-58.7432 407.234 -60.069 407.779 -60.9548 408.725C-62.6568 410.535 -62.1531 411.156 -58.5927 411.643C-55.727 412.038 -55.646 412.102 -55.9586 413.68C-56.3696 415.722 -55.1192 417.027 -54.025 415.705C-53.2666 414.788 -51.7035 414.504 -51.7035 415.275C-51.7035 415.525 -50.893 416.708 -49.9088 417.909ZM119.77 463.722C117.68 465.822 114.785 466.263 112.139 464.899C108.718 463.13 108.677 462.863 108.672 441.808C108.66 420.056 108.782 419.348 112.834 417.822C115.457 416.83 117.379 417.259 119.694 419.337L121.46 420.921L121.385 462.109L119.77 463.722ZM151.211 453.899C153.18 454.937 159.299 455.17 161.592 454.299C162.402 453.986 164.249 452.646 165.685 451.317C171.219 446.205 171.381 437.218 166.055 431.457C160.185 425.115 149.903 426.664 145.474 434.555C143.963 437.253 143.691 438.332 143.726 441.517C143.795 447.087 146.366 451.346 151.211 453.899ZM119.098 408.145C114.299 410.634 108.834 407.785 108.237 402.488C107.948 399.906 108.058 399.633 110.252 397.428C112.22 395.456 112.944 395.102 114.988 395.102C119.492 395.102 122.554 397.922 122.554 402.064C122.554 404.565 121.113 407.106 119.098 408.145ZM-154.157 413.163C-156.05 415.055 -158.655 415.339 -161.248 413.923C-164.415 412.2 -165.023 407.994 -162.534 405.029C-159.604 401.542 -154.394 402.331 -152.64 406.537C-151.569 409.108 -152.003 410.999 -154.157 413.163ZM-154.052 461.882C-156.831 464.371 -161.081 464.029 -163.084 461.157C-165.724 457.38 -162.898 451.961 -158.279 451.961C-152.692 451.961 -150.006 458.262 -154.052 461.882ZM-154.822 438.251C-156.478 439.417 -159.153 439.435 -161.248 438.292C-166.274 435.559 -164.149 427.593 -158.4 427.593C-154.041 427.593 -151.088 431.585 -152.657 435.35C-153.109 436.423 -154.081 437.729 -154.822 438.251ZM-211.992 482.856C-211.361 484.034 -211.199 484.069 -209.763 483.297C-208.767 482.764 -208.75 482.514 -209.508 479.671C-210.55 475.743 -210.515 467.998 -209.444 465.015C-209.369 464.807 -209.3 464.621 -209.236 464.441C-208.744 463.083 -208.582 462.625 -208.726 462.474C-208.802 462.393 -208.958 462.399 -209.195 462.405C-209.253 462.405 -209.323 462.405 -209.392 462.405C-210.4 462.405 -212.316 466.872 -213.225 471.34C-213.931 474.803 -213.335 480.333 -211.992 482.856ZM-190.068 500.378C-184.394 501.597 -184.278 501.574 -184.278 499.334C-184.278 497.39 -184.284 497.385 -188.186 496.671C-190.334 496.276 -192.76 495.824 -193.57 495.667C-194.745 495.435 -195.191 495.69 -195.735 496.891C-196.349 498.243 -196.285 498.47 -195.127 498.986C-194.415 499.305 -192.134 499.932 -190.068 500.378ZM-203.128 494.971C-200.882 496.34 -200.361 496.329 -199.464 494.89C-198.804 493.834 -199.087 493.387 -202.358 490.266C-204.356 488.368 -206.272 486.802 -206.625 486.79C-206.972 486.784 -207.673 487.231 -208.177 487.794C-209.033 488.74 -208.946 489.007 -207.001 491.351C-205.843 492.749 -204.101 494.373 -203.128 494.971ZM-65.8178 429.629C-65.2215 430.088 -64.5615 430.465 -64.3473 430.476C-64.0115 430.494 -58.888 423.769 -57.8227 421.913C-57.3364 421.06 -58.4306 419.47 -59.4958 419.47C-59.8837 419.47 -61.7074 421.57 -63.5541 424.135C-66.744 428.579 -66.854 428.846 -65.8178 429.629ZM-186.594 386.759C-186.594 387.855 -188.863 387.774 -189.286 386.666C-189.743 385.47 -189.402 385.215 -187.873 385.621C-187.167 385.801 -186.594 386.318 -186.594 386.759Z" fill="#066AEF"/>
<path d="M461.419 464.122C459.624 465.532 455.693 465.712 453.91 464.458C451.404 462.7 451.346 461.888 451.514 429.42L451.676 398.484L453.569 396.796C456.18 394.452 459.329 394.452 461.94 396.796L463.833 398.484L464.186 423.578L465.969 422.075C469.993 418.681 472.06 418.02 478.596 418.02C484.055 418.02 484.97 418.176 487.569 419.557C494.43 423.189 499.223 429.85 500.647 437.711C502.517 448.01 496.786 459.103 487.349 463.461C482.544 465.677 474.572 465.984 470.694 464.105C469.177 463.368 466.977 461.9 465.807 460.838L463.677 458.906L463.301 460.919C463.081 462.074 462.282 463.443 461.419 464.122ZM203.02 465.021C202.099 465.497 200.617 465.886 199.726 465.886C197.786 465.88 194.66 464.081 193.797 462.474C193.386 461.703 193.184 451.247 193.184 430.766V400.208L195.152 398.235C196.767 396.616 197.56 396.262 199.552 396.262C202.389 396.262 204.982 397.62 205.868 399.575C206.256 400.428 206.499 405.609 206.499 413.117V425.272H241.814L241.82 414.103C241.82 407.959 242.086 401.966 242.416 400.788C243.261 397.73 245.368 396.262 248.894 396.262C251.395 396.262 252.032 396.523 253.74 398.235L255.708 400.208V460.884L254.417 462.77C250.816 468.044 243.585 466.42 242.364 460.066C242.092 458.639 241.854 452.837 241.837 447.174L241.814 436.876H206.499V449.223C206.499 462.718 206.377 463.281 203.02 465.021ZM366.573 464.006C364.28 465.172 362.602 465.526 358.468 465.706C353.918 465.903 352.829 465.752 349.877 464.505C340.608 460.577 335.346 453.342 334.599 443.484C333.568 429.867 343.445 418.037 356.488 417.271C362.069 416.94 366.341 418.13 369.578 420.897C370.892 422.029 372.09 422.951 372.235 422.951C372.385 422.951 372.663 422.18 372.849 421.24C373.248 419.232 375.159 417.816 378.082 417.341C379.946 417.033 380.409 417.248 382.488 419.325L384.809 421.652V441.187C384.809 462.631 384.717 463.263 381.353 465.004C379.072 466.187 377.37 466.112 375.095 464.725C373.867 463.971 373.08 462.95 372.854 461.824C372.443 459.759 372.044 459.672 370.573 461.308C369.966 461.981 368.165 463.194 366.573 464.006ZM421.67 465.021C417.942 466.129 411.88 466.083 408.58 464.928C391.577 458.964 386.882 436.493 399.96 423.705C404.296 419.464 408.742 417.521 414.734 417.248C420.483 416.987 424.142 418.043 427.517 420.938C428.808 422.046 429.983 422.951 430.128 422.951C430.278 422.951 430.556 422.168 430.747 421.211C431.564 417.12 437.388 416.099 440.531 419.505L442.123 421.228V461.911L440.433 463.611C438.146 465.897 434.105 466.025 431.963 463.884C431.182 463.101 430.545 461.923 430.545 461.273C430.545 459.695 430.336 459.747 427.239 462.12C425.774 463.24 423.268 464.546 421.67 465.021ZM316.032 465.236C306.729 467.214 294.375 464.604 289.761 459.683C287.844 457.635 287.954 454.189 290.01 452.135C292.256 449.884 294.583 450.07 299.099 452.86C302.596 455.024 303.093 455.164 308.124 455.349C312.183 455.5 313.879 455.326 315.245 454.618C318.84 452.756 319.112 449.019 315.749 447.633C314.73 447.215 311.934 446.699 309.548 446.496C298.56 445.55 293.773 443.699 290.791 439.243C286.09 432.211 289.402 423.537 298.387 419.325C305.108 416.175 315.251 416.494 322.349 420.079C327.993 422.94 329.377 425.951 326.575 429.287C325.359 430.737 324.635 431.074 322.76 431.074C321.324 431.074 319.778 430.604 318.713 429.844C311.864 424.959 299.093 426.81 300.511 432.484C300.992 434.404 304.327 435.559 311.389 436.244C317.376 436.83 322.024 438.135 324.925 440.038C325.695 440.543 327.107 442.324 328.063 443.995C329.417 446.368 329.799 447.726 329.794 450.22C329.776 457.792 324.63 463.403 316.032 465.236ZM-90.3529 499.369C-92.5181 500.634 -93.8322 500.947 -97.6763 501.086C-105.388 501.365 -110.309 498.568 -113.47 492.122C-116.648 485.63 -115.293 477.838 -110.17 473.202C-106.111 469.529 -103.512 468.508 -98.3074 468.531C-91.2097 468.572 -86.6998 471.351 -83.5794 477.606C-79.6658 485.45 -82.5778 494.797 -90.3529 499.369ZM-184.464 407.622C-188.887 419.952 -190.062 422.679 -190.977 422.754C-192.545 422.887 -208.738 416.436 -209.028 415.56C-209.155 415.171 -208.431 412.688 -207.407 410.048C-206.388 407.414 -204.026 400.863 -202.156 395.502C-200.286 390.135 -198.497 385.267 -198.184 384.681C-197.49 383.376 -192.181 380.318 -189.633 379.756C-187.891 379.373 -187.752 379.454 -187.752 380.841C-187.752 381.908 -188.059 382.337 -188.823 382.337C-190.398 382.337 -191.804 384.206 -191.804 386.3C-191.804 390.066 -187.503 391.835 -184.956 389.12C-183.514 387.577 -183.352 385.935 -184.487 384.38C-185.234 383.359 -185.141 381.165 -184.354 381.189C-182.993 381.218 -179.068 388.952 -179.068 391.603C-179.068 392.143 -181.494 399.349 -184.464 407.622ZM276.544 465.021C275.623 465.497 274.268 465.886 273.539 465.886C271.831 465.88 268.705 463.971 267.883 462.434C267.443 461.616 267.298 454.92 267.408 440.995C267.599 418.263 267.449 419 271.982 417.642C274.616 416.848 277.128 417.677 278.883 419.917C279.965 421.298 280.023 422.359 280.023 441.465V442.225C280.023 458.941 280.023 462.347 278.327 463.919C277.869 464.342 277.285 464.633 276.544 465.021ZM413.611 454.514C417.2 455.622 417.71 455.616 421.224 454.479C425.126 453.22 428.345 449.756 429.74 445.329C430.632 442.498 430.678 441.587 430.082 438.733C429.138 434.184 426.892 431.144 423.013 429.142C420.338 427.761 419.348 427.546 416.766 427.796C409.553 428.498 404.47 434.428 404.505 442.092C404.533 447.418 408.603 452.971 413.611 454.514ZM354.705 454.212C357.212 455.21 362.648 454.966 365.004 453.754C369.856 451.253 372.328 447.024 372.345 441.181C372.362 437.607 372.137 436.708 370.614 434.236C363.406 422.562 347.196 427.465 347.023 441.367C346.988 444.285 347.283 445.881 348.186 447.61C349.593 450.307 352.632 453.388 354.705 454.212ZM472.135 454.085C475.4 455.303 479.812 454.775 483.031 452.779C491.361 447.615 490.788 433.789 482.058 429.328C479.186 427.86 474.48 427.831 471.325 429.27C468.355 430.621 464.875 434.665 464.053 437.711C462.23 444.5 465.79 451.717 472.135 454.085ZM278.813 407.535C277.377 408.742 276.434 409.027 273.84 409.027C270.98 409.027 270.442 408.823 268.676 407.054C266.991 405.365 266.708 404.681 266.708 402.343C266.708 399.941 266.98 399.331 268.954 397.353C270.882 395.427 271.565 395.102 273.73 395.102C280.949 395.108 284.174 403.01 278.813 407.535ZM-104.971 489.958C-102.91 492.041 -101.057 493.677 -100.843 493.596C-100.467 493.451 -91.2907 483.692 -89.1024 481.11C-88.0372 479.857 -88.0314 479.77 -89.0445 478.65C-89.6234 478.012 -90.3818 477.49 -90.7407 477.49C-91.0939 477.49 -93.5833 479.706 -96.2753 482.416L-101.167 487.341L-103.367 485.183C-105.127 483.46 -105.77 483.147 -106.534 483.634C-109.064 485.23 -108.867 486.019 -104.971 489.958Z" fill="#0B9B44"/>
</g>
<defs>
<clipPath id="clip0_66_196">
<rect width="336.669" height="336.669" fill="white" transform="translate(87.2939 26)"/>
</clipPath>
<clipPath id="clip1_66_196">
<rect width="490" height="132.171" fill="white" transform="translate(11 354.816)"/>
</clipPath>
</defs>
</svg>
