<svg width="1244" height="389" viewBox="0 0 1244 389" fill="none" xmlns="http://www.w3.org/2000/svg">
<path d="M292.63 387.01C284.69 388.92 280.6 388.98 175.9 388.92C169.53 388.92 163.52 388.91 157.82 388.91C73.42 388.88 61.06 388.87 50.65 384.37C48.16 383.29 45.78 381.96 42.56 380.3C35.1 376.47 31.62 373.83 23.81 366.05C15.61 357.88 13.55 355.13 9.55001 347C6.98001 341.78 3.88001 333.9 2.66001 329.5C0.450009 321.55 0.43001 320.94 0.0900097 230.5C-0.14999 165.34 0.0800073 137.51 0.900007 132.5C5.23001 106.01 21.16 84.45 45.4 72.25C56.62 66.6 60.81 65.79 81.65 65.26L100.9 64.76V52.06C100.9 38.82 102.11 32.44 106.14 24.54C108.97 18.97 118.32 9.47999 124.39 6.00999C134.23 0.369995 137.63 0 179.02 0C213.14 0 217.3 0.180005 222.78 1.88C231.11 4.48 236.53 7.86 242.55 14.23C252.23 24.46 254.87 32.49 254.89 51.75L254.9 65H269.94C286.5 65 295.68 66.43 305.92 70.59C327.86 79.5 344.52 99.45 350.88 124.41C352.83 132.06 352.9 135.36 352.9 225.96V319.61L350.52 328.55C346.69 342.99 342.09 351.81 332.7 362.78C323.06 374.03 307.49 383.45 292.63 387.01ZM81.62 355.22C84.76 358.4 87.59 361 87.89 361C88.2 361 92.25 357.17 96.9 352.5C101.55 347.83 105.83 344 106.4 344C106.97 344 111.25 347.83 115.9 352.5C120.55 357.17 124.83 361 125.4 361C125.97 361 130.47 356.95 135.4 352L144.36 343L153.4 352C158.37 356.95 162.89 361 163.45 361C164 361 167.37 358.04 170.93 354.42C174.49 350.81 178.65 346.94 180.18 345.83L182.97 343.82L192.48 352.55L201.99 361.28L210.82 352.64C215.67 347.89 220.05 344 220.54 344C221.04 344 225.25 347.83 229.9 352.5C234.55 357.17 238.8 361 239.35 361C239.9 361 242.94 358.43 246.12 355.28L251.9 349.56V230.84L257.05 224.92C262.1 219.11 262.17 218.95 260.38 216.97C258.55 214.96 258.54 214.96 255.22 218.17L251.9 221.39V110.04L249.65 109.49C248.41 109.19 208.92 109.07 161.9 109.22L76.4 109.5L76.09 112.75C75.78 115.98 75.74 116 70.34 116C65.62 116 64.9 115.74 64.9 114.06C64.9 111.15 63.26 110.7 61.11 113.01C59.42 114.82 59.05 114.88 57.94 113.54C56.05 111.28 57.53 107.11 61.49 103.48C64.59 100.64 64.79 100.16 63.37 98.98C59.74 95.96 53.37 101.3 52.23 108.34C51.75 111.29 52.09 112.76 53.76 115.02C54.94 116.62 55.9 118.16 55.9 118.46C55.9 118.76 54.06 119 51.81 119C46.59 119 35.44 125.06 32.87 129.29C30.22 133.65 12.9 182.06 12.9 185.11C12.9 186.53 13.71 188.43 14.71 189.33C16.98 191.38 45.96 202 49.29 202C52.61 202 54.56 199.83 56.31 194.2C57.88 189.14 64.8 169.66 69.81 156.18C71.51 151.61 72.9 146.33 72.9 144.46C72.9 139.43 67.29 125.9 64.11 123.25L61.4 121.01L75.9 121V325.72L71.65 326.61C68.02 327.38 67.4 327.88 67.4 330C67.4 332.23 67.87 332.53 71.65 332.81L75.9 333.11V349.44L81.62 355.22ZM620.75 303.57C615.85 306.11 611.12 305.42 607.3 301.6L603.9 298.2L603.91 247.85C603.93 209.58 604.23 196.91 605.18 195.03C607.26 190.92 612.84 187.75 616.9 188.38C620.56 188.96 625.9 193.78 625.9 196.52C625.9 198.59 626.3 198.44 631.34 194.6C638.18 189.37 644.44 187.7 655.25 188.18C663.3 188.54 665.16 189 670.7 191.96C678.24 195.99 686.26 204.39 689.66 211.81C699.44 233.11 690.93 257.45 670.12 267.73C662.92 271.29 661.98 271.5 652.95 271.5C642.26 271.5 637.18 269.82 630.72 264.14C628.75 262.41 626.86 261 626.52 261C626.18 261 625.9 269.08 625.9 278.95C625.9 298.47 625.33 301.21 620.75 303.57ZM458.67 270C456.87 271.09 454.05 271.99 452.4 271.99C448.46 271.99 443.1 268.65 441.88 265.43C441.29 263.91 440.9 244.73 440.9 218V173.13L422.82 172.81L404.73 172.5L401.7 169.11C399.02 166.1 398.73 165.19 399.19 161.14C399.56 157.83 400.44 155.93 402.36 154.28L405.01 152H451.91C484.15 152 499.57 152.35 501.24 153.11C504.21 154.46 505.9 157.91 505.9 162.61C505.9 171.63 502.62 173 480.95 173H463.9V217.93C463.9 244.71 463.51 263.91 462.92 265.43C462.39 266.85 460.48 268.9 458.67 270ZM127.9 53.57V65H229.14L228.71 52.75C228.25 39.83 227.3 36.55 222.75 32.32C218.34 28.21 216.13 28 178.3 28C138.68 28 137.88 28.1 132.71 33.63C128.65 37.97 127.9 41.09 127.9 53.57ZM516.37 270.58C514.49 271.36 512.16 272 511.18 272C508.7 271.99 503.24 268.51 501.96 266.12C501.27 264.82 500.9 252.08 500.9 229.58V195.03L503.65 191.95C505.61 189.76 507.61 188.71 510.62 188.31C514.47 187.79 515.16 188.06 518.37 191.27C520.98 193.88 521.9 195.66 521.9 198.08V201.36L525.51 197.15C529.43 192.57 533.95 189.87 540.81 188.03C552.11 184.98 561.3 195.62 554.43 203.78C552.3 206.32 551.08 206.79 545.65 207.23C535.29 208.06 528.93 212.3 524.98 221C523.17 225.01 522.94 227.54 522.92 244.3C522.9 265.49 522.24 268.12 516.37 270.58ZM292 189.31C294.48 192.31 295.39 192.84 296.5 191.91C298.3 190.42 298.27 187.6 296.37 181.2L294.83 176.03L300.94 168.27C304.3 163.99 307.39 160.38 307.8 160.22C308.47 159.98 321.31 174.12 326.89 181.25C329.56 184.66 330.41 184.68 332.55 181.42C334.14 178.99 334.13 178.55 332.45 173.88C330.8 169.27 330.79 168.78 332.31 167.1C334.6 164.57 333.34 161.68 330.2 162.28C328.45 162.62 327.35 162.1 326.24 160.4C324.83 158.24 324.87 157.85 326.8 155.39C329.31 152.2 329.37 151.61 327.33 149.57C326.1 148.35 325.31 148.24 323.7 149.11C322.13 149.95 321.44 149.89 320.76 148.85C318.33 145.11 318.73 142.95 323.17 135.76C329.89 124.89 330.9 122.52 330.9 117.63C330.9 109.46 329.12 108.32 322.03 111.93C317.84 114.07 315.43 116.96 308.83 127.74C304.83 134.28 304.09 134.98 301.22 134.99C298.48 135 297.99 134.61 297.72 132.25C297.25 128.24 293.88 128.08 291.58 131.96C289.4 135.65 285.82 136 283.63 132.75L282.12 130.5L279.76 132.63C278.45 133.81 275.3 135.06 272.68 135.44C269.3 135.92 267.38 136.85 265.93 138.69C264.81 140.11 263.9 141.61 263.9 142.03C263.9 142.45 266.71 143.29 270.15 143.89C276.69 145.04 291.49 149.4 293.66 150.81C294.61 151.43 293.75 153.88 290.16 160.73L285.4 169.83L280.27 170.47C276.74 170.91 274.45 171.85 272.92 173.48C269.98 176.6 270.85 177.67 277 178.51C281.95 179.19 282.09 179.3 281.55 182.02C280.84 185.54 283 187.79 284.89 185.51C286.2 183.93 288.9 183.44 288.9 184.77C288.9 185.2 290.3 187.24 292 189.31ZM585.09 268.27C581.48 271.89 576.48 272.65 571.91 270.3C566 267.25 565.93 266.79 565.92 230.5C565.9 193.01 566.11 191.79 573.11 189.16C577.64 187.45 580.96 188.19 584.96 191.77L588.01 194.5L587.88 265.49L585.09 268.27ZM639.4 251.34C642.8 253.13 653.37 253.53 657.33 252.03C658.73 251.49 661.92 249.18 664.4 246.89C673.96 238.08 674.24 222.59 665.04 212.66C654.9 201.73 637.14 204.4 629.49 218C626.88 222.65 626.41 224.51 626.47 230C626.59 239.6 631.03 246.94 639.4 251.34ZM583.93 172.48C575.64 176.77 566.2 171.86 565.17 162.73C564.67 158.28 564.86 157.81 568.65 154.01C572.05 150.61 573.3 150 576.83 150C584.61 150 589.9 154.86 589.9 162C589.9 166.31 587.41 170.69 583.93 172.48ZM111.93 181.13C108.66 184.39 104.16 184.88 99.68 182.44C94.21 179.47 93.16 172.22 97.46 167.11C102.52 161.1 111.52 162.46 114.55 169.71C116.4 174.14 115.65 177.4 111.93 181.13ZM112.11 265.1C107.31 269.39 99.97 268.8 96.51 263.85C91.95 257.34 96.83 248 104.81 248C114.46 248 119.1 258.86 112.11 265.1ZM110.78 224.37C107.92 226.38 103.3 226.41 99.68 224.44C91 219.73 94.67 206 104.6 206C112.13 206 117.23 212.88 114.52 219.37C113.74 221.22 112.06 223.47 110.78 224.37ZM12.03 301.25C13.12 303.28 13.4 303.34 15.88 302.01C17.6 301.09 17.63 300.66 16.32 295.76C14.52 288.99 14.58 275.64 16.43 270.5C16.56 270.14 16.68 269.82 16.79 269.51C17.64 267.17 17.92 266.38 17.67 266.12C17.54 265.98 17.27 265.99 16.86 266C16.76 266 16.64 266 16.52 266C14.78 266 11.47 273.7 9.90001 281.4C8.68001 287.37 9.71 296.9 12.03 301.25ZM49.9 331.45C59.7 333.55 59.9 333.51 59.9 329.65C59.9 326.3 59.89 326.29 53.15 325.06C49.44 324.38 45.25 323.6 43.85 323.33C41.82 322.93 41.05 323.37 40.11 325.44C39.05 327.77 39.16 328.16 41.16 329.05C42.39 329.6 46.33 330.68 49.9 331.45ZM27.34 322.13C31.22 324.49 32.12 324.47 33.67 321.99C34.81 320.17 34.32 319.4 28.67 314.02C25.22 310.75 21.91 308.05 21.3 308.03C20.7 308.02 19.49 308.79 18.62 309.76C17.14 311.39 17.29 311.85 20.65 315.89C22.65 318.3 25.66 321.1 27.34 322.13ZM264.52 209.51C265.55 210.3 266.69 210.95 267.06 210.97C267.64 211 276.49 199.41 278.33 196.21C279.17 194.74 277.28 192 275.44 192C274.77 192 271.62 195.62 268.43 200.04C262.92 207.7 262.73 208.16 264.52 209.51ZM55.9 135.62C55.9 137.51 51.98 137.37 51.25 135.46C50.46 133.4 51.05 132.96 53.69 133.66C54.91 133.97 55.9 134.86 55.9 135.62Z" fill="#066AEF"/>
<path d="M1175.23 268.96C1172.13 271.39 1165.34 271.7 1162.26 269.54C1157.93 266.51 1157.83 265.11 1158.12 209.15L1158.4 155.83L1161.67 152.92C1166.18 148.88 1171.62 148.88 1176.13 152.92L1179.4 155.83L1179.71 177.46L1180.01 199.08L1183.09 196.49C1190.04 190.64 1193.61 189.5 1204.9 189.5C1214.33 189.5 1215.91 189.77 1220.4 192.15C1232.25 198.41 1240.53 209.89 1242.99 223.44C1246.22 241.19 1236.32 260.31 1220.02 267.82C1211.72 271.64 1197.95 272.17 1191.25 268.93C1188.63 267.66 1184.83 265.13 1182.81 263.3L1179.13 259.97L1178.48 263.44C1178.1 265.43 1176.72 267.79 1175.23 268.96ZM728.89 270.51C727.3 271.33 724.74 272 723.2 272C719.85 271.99 714.45 268.89 712.96 266.12C712.25 264.79 711.9 246.77 711.9 211.47V158.8L715.3 155.4C718.09 152.61 719.46 152 722.9 152C727.8 152 732.28 154.34 733.81 157.71C734.48 159.18 734.9 168.11 734.9 181.05V202H795.9L795.91 182.75C795.91 172.16 796.37 161.83 796.94 159.8C798.4 154.53 802.04 152 808.13 152C812.45 152 813.55 152.45 816.5 155.4L819.9 158.8V263.38L817.67 266.63C811.45 275.72 798.96 272.92 796.85 261.97C796.38 259.51 795.97 249.51 795.94 239.75L795.9 222H734.9V243.28C734.9 266.54 734.69 267.51 728.89 270.51ZM1011.4 268.76C1007.44 270.77 1004.54 271.38 997.4 271.69C989.54 272.03 987.66 271.77 982.56 269.62C966.55 262.85 957.46 250.38 956.17 233.39C954.39 209.92 971.45 189.53 993.98 188.21C1003.62 187.64 1011 189.69 1016.59 194.46C1018.86 196.41 1020.93 198 1021.18 198C1021.44 198 1021.92 196.67 1022.24 195.05C1022.93 191.59 1026.23 189.15 1031.28 188.33C1034.5 187.8 1035.3 188.17 1038.89 191.75L1042.9 195.76V229.43C1042.9 266.39 1042.74 267.48 1036.93 270.48C1032.99 272.52 1030.05 272.39 1026.12 270C1024 268.7 1022.64 266.94 1022.25 265C1021.54 261.44 1020.85 261.29 1018.31 264.11C1017.26 265.27 1014.15 267.36 1011.4 268.76ZM1106.57 270.51C1100.13 272.42 1089.66 272.34 1083.96 270.35C1054.59 260.07 1046.48 221.34 1069.07 199.3C1076.56 191.99 1084.24 188.64 1094.59 188.17C1104.52 187.72 1110.84 189.54 1116.67 194.53C1118.9 196.44 1120.93 198 1121.18 198C1121.44 198 1121.92 196.65 1122.25 195C1123.66 187.95 1133.72 186.19 1139.15 192.06L1141.9 195.03V265.15L1138.98 268.08C1135.03 272.02 1128.05 272.24 1124.35 268.55C1123 267.2 1121.9 265.17 1121.9 264.05C1121.9 261.33 1121.54 261.42 1116.19 265.51C1113.66 267.44 1109.33 269.69 1106.57 270.51ZM924.1 270.88C908.03 274.29 886.69 269.79 878.72 261.31C875.41 257.78 875.6 251.84 879.15 248.3C883.03 244.42 887.05 244.74 894.85 249.55C900.89 253.28 901.75 253.52 910.44 253.84C917.45 254.1 920.38 253.8 922.74 252.58C928.95 249.37 929.42 242.93 923.61 240.54C921.85 239.82 917.02 238.93 912.9 238.58C893.92 236.95 885.65 233.76 880.5 226.08C872.38 213.96 878.1 199.01 893.62 191.75C905.23 186.32 922.75 186.87 935.01 193.05C944.76 197.98 947.15 203.17 942.31 208.92C940.21 211.42 938.96 212 935.72 212C933.24 212 930.57 211.19 928.73 209.88C916.9 201.46 894.84 204.65 897.29 214.43C898.12 217.74 903.88 219.73 916.08 220.91C926.42 221.92 934.45 224.17 939.46 227.45C940.79 228.32 943.23 231.39 944.88 234.27C947.22 238.36 947.88 240.7 947.87 245C947.84 258.05 938.95 267.72 924.1 270.88ZM222.14 329.71C218.4 331.89 216.13 332.43 209.49 332.67C196.17 333.15 187.67 328.33 182.21 317.22C176.72 306.03 179.06 292.6 187.91 284.61C194.92 278.28 199.41 276.52 208.4 276.56C220.66 276.63 228.45 281.42 233.84 292.2C240.6 305.72 235.57 321.83 222.14 329.71ZM59.5799 171.58C51.9399 192.83 49.9099 197.53 48.3299 197.66C45.6199 197.89 17.6499 186.77 17.1499 185.26C16.9299 184.59 18.1799 180.31 19.9499 175.76C21.7099 171.22 25.7899 159.93 29.0199 150.69C32.2499 141.44 35.3399 133.05 35.8799 132.04C37.0799 129.79 46.2499 124.52 50.6499 123.55C53.6599 122.89 53.8999 123.03 53.8999 125.42C53.8999 127.26 53.3699 128 52.0499 128C49.3299 128 46.8999 131.22 46.8999 134.83C46.8999 141.32 54.3299 144.37 58.7299 139.69C61.2199 137.03 61.4999 134.2 59.5399 131.52C58.2499 129.76 58.4099 125.98 59.7699 126.02C62.1199 126.07 68.8999 139.4 68.8999 143.97C68.8999 144.9 64.7099 157.32 59.5799 171.58ZM855.89 270.51C854.3 271.33 851.96 272 850.7 272C847.75 271.99 842.35 268.7 840.93 266.05C840.17 264.64 839.92 253.1 840.11 229.1C840.44 189.92 840.18 191.19 848.01 188.85C852.56 187.48 856.9 188.91 859.93 192.77C861.8 195.15 861.9 196.98 861.9 229.91V231.22C861.9 260.03 861.9 265.9 858.97 268.61C858.18 269.34 857.17 269.84 855.89 270.51ZM1092.65 252.4C1098.85 254.31 1099.73 254.3 1105.8 252.34C1112.54 250.17 1118.1 244.2 1120.51 236.57C1122.05 231.69 1122.13 230.12 1121.1 225.2C1119.47 217.36 1115.59 212.12 1108.89 208.67C1104.27 206.29 1102.56 205.92 1098.1 206.35C1085.64 207.56 1076.86 217.78 1076.92 230.99C1076.97 240.17 1084 249.74 1092.65 252.4ZM990.9 251.88C995.23 253.6 1004.62 253.18 1008.69 251.09C1017.07 246.78 1021.34 239.49 1021.37 229.42C1021.4 223.26 1021.01 221.71 1018.38 217.45C1005.93 197.33 977.93 205.78 977.63 229.74C977.57 234.77 978.08 237.52 979.64 240.5C982.07 245.15 987.32 250.46 990.9 251.88ZM1193.74 251.66C1199.38 253.76 1207 252.85 1212.56 249.41C1226.95 240.51 1225.96 216.68 1210.88 208.99C1205.92 206.46 1197.79 206.41 1192.34 208.89C1187.21 211.22 1181.2 218.19 1179.78 223.44C1176.63 235.14 1182.78 247.58 1193.74 251.66ZM859.81 171.43C857.33 173.51 855.7 174 851.22 174C846.28 174 845.35 173.65 842.3 170.6C839.39 167.69 838.9 166.51 838.9 162.48C838.9 158.34 839.37 157.29 842.78 153.88C846.11 150.56 847.29 150 851.03 150C863.5 150.01 869.07 163.63 859.81 171.43ZM196.89 313.49C200.45 317.08 203.65 319.9 204.02 319.76C204.67 319.51 220.52 302.69 224.3 298.24C226.14 296.08 226.15 295.93 224.4 294C223.4 292.9 222.09 292 221.47 292C220.86 292 216.56 295.82 211.91 300.49L203.46 308.98L199.66 305.26C196.62 302.29 195.51 301.75 194.19 302.59C189.82 305.34 190.16 306.7 196.89 313.49Z" fill="#0B9B44"/>
<rect x="125.9" y="167" width="107" height="12" rx="6" fill="#595959"/>
<rect x="125.9" y="211" width="107" height="12" rx="6" fill="#595959"/>
<rect x="125.9" y="253" width="107" height="12" rx="6" fill="#595959"/>
</svg>
